<svg width="763" height="638" viewBox="0 0 763 638" fill="none" xmlns="http://www.w3.org/2000/svg">
<path fill-rule="evenodd" clip-rule="evenodd" d="M221.719 441.339C118.967 465.291 60.1785 431.848 45.3526 341.008C23.1138 204.749 98.4487 61.5993 201.816 47.8767C305.182 34.1541 348.636 73.2982 421.287 122.454C493.938 171.609 704.507 287.268 728.43 306.898C752.353 326.527 803.54 403.232 701.157 451.818C632.902 484.209 547.991 478.109 446.423 433.518C410.719 417.907 378.204 409.646 348.88 408.734C319.556 407.823 277.169 418.691 221.719 441.339Z" fill="#EE58B6"/>
<path d="M338.845 268.348C348.08 274.376 351.794 282.174 349.986 291.742C341.336 304.707 337.011 315.934 337.011 325.423C337.011 334.913 336.36 347.256 335.058 362.454L263.169 363.973L263.017 363.881C261.096 363.918 259.207 363.948 257.351 363.973C241.351 364.181 227.156 366.3 226.486 366.404C221.247 367.217 211.806 357.497 209.186 354.204C204.976 348.913 202.975 342.651 202.085 335.836C201.246 329.407 202.429 323.431 204.754 317.701C207.469 311.007 211.72 305.213 217.109 300.11C223.018 294.693 229.382 290.271 236.516 287.009C236.793 286.883 241.913 284.362 242.159 284.395C242.323 284.418 250.509 287.04 261.893 292.358C274.814 283.174 288.788 273.456 303.82 263.204C317.935 260.606 329.61 262.32 338.845 268.348Z" fill="white"/>
<path fill-rule="evenodd" clip-rule="evenodd" d="M245.823 424.804C257.127 427.132 263.941 422.696 266.266 411.497C269.754 394.699 248.681 397.701 242.231 389.056C235.782 380.41 250.087 378.678 266.266 383.867C282.46 383.157 287.134 384.084 288.064 379.618C288.994 375.153 280.558 372.339 258.023 373.075C235.488 373.812 238.802 373.842 240.517 392.67C241.66 405.222 243.429 415.933 245.823 424.804Z" fill="white"/>
<path d="M526.753 460.68C518.065 453.493 511.946 448.973 508.666 446.082C500.834 439.179 492.811 432.494 484.909 425.669C483.285 424.266 481.707 422.756 480.37 421.084C478.692 418.987 479.075 417.539 481.723 416.518C483.814 415.712 486.098 415.341 488.329 414.985C494.981 413.921 501.645 412.928 508.314 411.972C511.244 411.552 514.198 411.306 517.137 410.941C517.662 410.875 518.162 410.613 518.674 410.442C518.42 410.029 518.226 409.56 517.903 409.211C515.329 406.432 512.732 403.675 510.141 400.913C509.913 400.67 509.671 400.44 509.435 400.204C509.804 400.115 510.168 399.997 510.541 399.942C517.369 398.934 524.196 397.92 531.027 396.937C535.513 396.292 539.997 395.624 544.497 395.095C549.102 394.554 553.721 394.115 558.342 393.733C562.474 393.392 566.623 393.248 570.755 392.904C573.403 392.684 576.025 392.162 578.672 391.948C581.982 391.68 585.31 391.638 588.624 391.411C592.763 391.128 596.894 390.711 601.034 390.435C604.514 390.202 608.006 390.14 611.486 389.904C614.293 389.714 617.086 389.301 619.894 389.131C622.637 388.965 625.392 388.983 628.141 388.919C635.26 388.752 642.378 388.549 649.498 388.431C653.854 388.359 658.248 388.089 662.556 388.553C664.802 388.795 667.369 389.956 668.97 391.536C673.016 395.53 676.602 399.993 680.363 404.276C682.668 406.903 684.978 409.526 687.247 412.184C692.03 417.786 696.776 423.419 701.562 429.018C703.049 430.757 704.64 432.406 706.132 434.14C706.56 434.637 706.811 435.287 707.144 435.867C706.673 435.482 705.27 434.282 705.736 434.706C751.908 476.711 557.467 485.642 526.753 460.68Z" fill="white"/>
<path d="M0.808415 305.47C0.965816 301.145 1.09963 296.819 1.26756 292.494C1.32182 291.097 1.47985 289.704 1.56611 288.308C2.2824 276.713 3.65999 265.192 6.6273 253.951C8.99521 244.98 12.1219 236.255 15.9221 227.733C20.2569 218.011 25.5271 208.87 31.5995 200.178C34.6933 195.749 38.0724 191.482 41.6678 187.445C45.9937 182.589 50.4383 177.78 55.2863 173.455C60.821 168.517 66.7687 164.016 72.7417 159.599C74.0716 158.616 76.4224 158.136 78.0094 158.547C80.7962 159.268 81.1992 161.69 79.0675 163.54C74.2273 167.741 71.9241 173.104 71.5694 179.332C71.3735 182.772 71.6957 186.241 71.5047 189.681C70.8752 201.023 74.1872 211.463 79.0919 221.422C83.7811 230.944 90.609 238.785 100.406 243.366C106.028 245.994 112.04 247.839 117.96 249.783C123.102 251.472 128.371 252.776 133.568 254.304C138.667 255.803 143.689 257.163 149.091 255.361C151.862 254.437 153.942 256.916 152.88 259.602C148.867 269.758 145.448 280.3 138.398 288.864C134.17 294.001 129.278 298.755 124.044 302.88C116.361 308.935 107.527 313.252 98.7021 317.505C90.095 321.653 81.6818 326.203 73.0366 330.267C63.2974 334.846 53.4278 339.157 43.5516 343.44C35.5839 346.895 27.5403 350.181 19.4887 353.44C17.5634 354.219 15.5011 354.766 13.4493 355.106C11.3934 355.446 6.87687 352.223 6.07002 350.092C4.02245 344.685 2.63062 339.125 2.05582 333.362C1.70602 329.855 1.23519 326.36 0.693789 322.859C0.568848 322.611 0.568848 322.363 0.693787 321.99C0.902019 317.194 0.989354 312.522 1.04737 307.849C1.04897 307.72 0.735433 307.588 0.568848 307.458C0.568848 306.878 0.568848 306.298 0.568848 305.594C0.652123 305.47 0.808305 305.473 0.808415 305.47Z" fill="white"/>
<path fill-rule="evenodd" clip-rule="evenodd" d="M334.197 362.301L485.489 358.446H491.695C500.741 365.185 510.667 368.089 521.472 367.158C537.679 365.762 551.989 347.874 555.331 322.936C555.824 320.991 557.018 320.524 558.915 321.534C561.003 325.605 564.708 327.381 570.031 326.862C572.341 326.612 573.627 327.152 574.932 329.661C576.236 332.169 583.133 335.324 587.456 332.792C591.779 330.26 611.709 297.978 611.709 292.546C611.709 287.114 612.827 275.251 613.706 274.485C614.586 273.718 616.241 274.34 619.453 273.322C622.665 272.304 625.414 273.317 635.713 246.283C646.011 219.249 661.768 178.836 663.447 150.538C665.125 122.24 645.136 132.241 635.713 144.05C626.289 155.859 600.019 186.264 575.706 202.776C572.731 204.998 570.303 206.042 568.421 205.91C567.292 198.882 562.671 196.264 554.557 198.054C551.404 198.621 548.823 196.128 546.815 190.576C541.613 161.75 529.754 140.891 511.239 128.001C483.466 108.664 436.142 97.6142 424.755 138.043C417.164 164.996 421.728 197.742 438.446 236.28L431.485 242.305C404.096 251.779 381.721 263.476 364.361 277.393C338.32 298.27 337.822 318.634 336.44 335.431C335.519 346.629 334.771 355.586 334.197 362.301Z" fill="white"/>
<path d="M278.215 245.899C278.447 243.709 278.552 241.505 278.805 239.318C278.819 239.2 279.931 238.949 280.251 239.169C283.229 241.214 286.174 243.311 289.06 245.485C289.842 246.074 289.903 246.66 290.258 245.118C290.812 242.709 294.241 242.036 296.294 243.748C301.002 247.675 303.378 252.955 305.101 258.696C306.596 263.677 306.004 268.739 306.149 273.77C306.242 277 309.267 279.436 312.442 279.566C314.789 279.662 317.258 280.692 319.37 281.857C324.479 284.675 327.765 289.122 329.379 294.723C331.118 300.755 329.5 306.125 326.004 311.137C322.824 315.695 319.928 320.47 315.313 323.812C312.76 325.661 309.819 327.196 307.821 329.531C305.675 332.039 303.211 333.674 300.288 334.802C293.089 337.58 285.223 333.977 281.698 327.974C277.974 320.054 264.684 326.508 259.534 314.825C256.935 310.969 255.923 307.736 256.484 307.413C257.168 307.019 256.222 306.021 255.011 304.749C249.722 299.194 245.025 293.177 241.811 286.133C241.303 285.021 240.78 283.874 240.558 282.689C240.422 281.961 240.625 280.92 241.098 280.418C241.395 280.102 242.577 280.328 243.175 280.655C244.071 281.145 244.781 281.964 245.609 282.593C247.019 283.665 247.802 283.209 247.42 281.537C246.334 276.785 247.332 272.274 249.004 267.915C249.905 265.564 251.371 263.419 252.733 261.276C252.862 261.073 254.171 261.381 254.741 261.749C255.798 262.432 256.713 263.335 257.687 264.147C257.752 262.848 257.772 261.545 257.9 260.252C257.976 259.484 258.164 258.716 258.397 257.977C259.564 254.276 260.19 254.089 263.279 256.41C263.693 256.721 264.189 256.924 264.647 257.177C264.71 256.706 264.793 256.236 264.832 255.763C265.173 251.696 264.359 248.006 261.386 244.986C261.351 244.95 261.996 243.889 262.367 243.859C266.65 243.523 270.933 243.345 274.851 245.634C275.652 246.101 276.451 246.572 277.375 247.166C277.747 246.828 278.164 246.383 278.215 245.899Z" fill="white"/>
<path fill-rule="evenodd" clip-rule="evenodd" d="M341.723 96.2938C329.076 106.776 323.34 121.952 324.517 141.821C326.281 171.625 360.954 192.858 377.725 183.871C394.496 174.883 413.014 161.791 415.226 133.922C416.165 160.441 418.944 173.348 383.19 192.58C347.436 211.812 310.057 181.97 304.65 169.671C299.244 157.371 286.229 130.218 312.644 98.7173C316.26 94.5511 325.953 93.7433 341.723 96.2938Z" fill="white"/>
<path fill-rule="evenodd" clip-rule="evenodd" d="M643.073 445.006C646.133 444.67 648.952 444.401 651.749 443.986C658.104 443.043 664.444 442.005 670.797 441.05C674.578 440.481 678.415 440.205 682.142 439.401C684.757 438.837 687.126 439.203 689.535 439.996C689.922 440.123 690.219 440.527 690.557 440.802C690.151 441.03 689.763 441.407 689.334 441.462C683.749 442.167 678.148 442.754 672.571 443.517C666.963 444.283 661.383 445.254 655.779 446.055C651.874 446.613 647.946 447.01 644.036 447.532C641.998 447.804 639.981 448.243 637.943 448.514C635.057 448.898 632.154 449.155 629.269 449.544C625.884 450 622.514 450.565 619.13 451.033C616.41 451.41 613.676 451.684 610.955 452.055C607.489 452.528 604.032 453.067 600.568 453.552C598.012 453.91 595.452 454.234 592.892 454.561C590.196 454.905 587.489 455.174 584.804 455.591C583.179 455.844 581.684 455.832 581.201 453.962C580.761 452.257 581.632 450.921 583.293 450.553C585.567 450.049 587.901 449.774 590.224 449.555C592.981 449.294 595.753 449.183 598.521 449.033C601.927 448.85 605.339 448.755 608.741 448.51C612.36 448.249 615.969 447.833 619.586 447.527C623.839 447.166 628.101 446.902 632.349 446.493C634.557 446.28 636.743 445.834 638.942 445.512C640.233 445.324 641.529 445.173 643.073 445.006Z" fill="#E7EAEE"/>
<path fill-rule="evenodd" clip-rule="evenodd" d="M576.706 421.445C579.767 421.28 582.582 421.163 585.388 420.935C588.368 420.694 591.336 420.292 594.317 420.061C597.663 419.802 601.021 419.697 604.368 419.448C608.165 419.165 611.954 418.767 615.75 418.475C618.557 418.26 621.375 418.181 624.181 417.957C627.701 417.675 631.211 417.269 634.731 416.987C637.537 416.763 640.356 416.691 643.162 416.467C646.871 416.171 650.568 415.619 654.28 415.495C658.515 415.353 662.769 414.035 667.001 415.495C667.505 415.669 667.963 415.976 668.442 416.221C667.987 416.307 667.534 416.425 667.074 416.474C663.863 416.815 660.647 417.105 657.44 417.481C653.544 417.939 649.665 418.538 645.764 418.936C642.911 419.227 640.027 419.208 637.172 419.479C633.256 419.852 629.359 420.415 625.445 420.809C622.605 421.094 619.748 421.215 616.902 421.451C613.19 421.759 609.48 422.096 605.771 422.442C602.391 422.757 599.011 423.073 595.637 423.439C591.328 423.906 587.03 424.48 582.718 424.906C578.626 425.31 574.516 425.535 570.423 425.931C567.576 426.207 564.751 426.73 561.902 426.953C560.789 427.04 559.55 426.8 558.53 426.347C557.801 426.023 557.341 425.097 556.761 424.44C557.498 423.938 558.199 423.07 558.976 422.995C563.699 422.544 568.442 422.289 573.174 421.93C574.275 421.846 575.363 421.611 576.706 421.445Z" fill="#E7EAEE"/>
<path fill-rule="evenodd" clip-rule="evenodd" d="M316.415 484.084C316.159 484.289 316.025 484.446 315.896 484.443C314.727 484.408 313.559 484.346 312.391 484.292C313.507 483.522 314.526 482.338 315.756 482.056C320.595 480.948 324.953 478.995 328.991 476.113C334.266 472.348 337.523 467.411 338.708 461.102C338.891 460.129 338.617 459.694 337.444 459.7C335.77 459.709 334.092 459.435 332.42 459.246C329.148 458.876 326.544 456.563 326.256 453.804C326.072 452.035 328.728 448.33 330.69 447.374C335.253 445.151 340.324 449.541 341.621 453.343C342.143 454.874 342.391 454.318 343.081 453.688C346.338 450.712 347.405 446.889 347.145 442.691C346.868 438.204 344.892 434.595 340.999 432.071C339.65 431.196 339.133 429.951 340.178 428.361C341.319 426.626 344.483 426.509 345.719 428.042C347.391 430.115 348.857 432.504 349.779 434.988C352.016 441.012 351.443 446.869 347.68 452.259C347.411 452.644 347.189 453.089 346.843 453.39C343.889 455.955 342.297 459.147 341.096 462.906C337.535 474.059 329.36 480.643 318.278 483.94C317.745 484.098 317.122 483.96 316.415 484.084ZM331.488 450.355C329.349 451.621 328.765 455.257 330.79 455.889C333.129 456.62 335.831 456.216 338.375 456.241C338.485 456.242 338.668 455.602 338.702 455.25C339.034 451.831 335.828 449.471 331.488 450.355Z" fill="black"/>
<path fill-rule="evenodd" clip-rule="evenodd" d="M614.93 432.348C621.991 431.678 628.797 430.956 635.613 430.355C640.444 429.929 645.292 429.713 650.125 429.316C653.107 429.071 656.078 428.677 659.052 428.323C663.155 427.835 667.261 426.926 671.356 426.972C673.692 426.999 676.409 427.758 678.001 430.123C678.124 430.307 678.263 430.48 678.394 430.657C678.086 430.718 677.755 430.885 677.472 430.825C672.131 429.693 666.877 430.788 661.577 431.277C657.882 431.618 654.125 431.212 650.407 431.38C646.674 431.548 642.956 432.027 639.228 432.344C635.113 432.695 630.991 432.967 626.882 433.374C624.674 433.593 622.494 434.083 620.289 434.345C617.013 434.734 613.72 434.983 610.444 435.376C606.698 435.826 602.948 436.277 599.227 436.896C594.803 437.632 590.42 438.61 585.999 439.367C581.62 440.118 577.234 440.92 572.817 441.308C570.804 441.485 568.674 440.859 566.663 440.341C565.116 439.944 565.467 438.854 566.452 438.14C567.248 437.563 568.222 437.063 569.177 436.913C572.051 436.463 574.954 436.194 577.847 435.869C580.905 435.524 583.959 435.144 587.024 434.874C591.386 434.489 595.76 434.237 600.121 433.839C602.771 433.597 605.401 433.143 608.049 432.864C610.253 432.632 612.469 432.516 614.93 432.348Z" fill="#E7EAEE"/>
<path fill-rule="evenodd" clip-rule="evenodd" d="M568.107 411.573C573.931 410.908 579.502 410.207 585.083 409.591C588.708 409.191 592.353 408.961 595.979 408.563C598.098 408.33 600.194 407.893 602.306 407.592C603.757 407.384 605.22 407.268 606.675 407.082C611.122 406.512 615.56 405.861 620.016 405.367C624.547 404.865 629.1 404.557 633.635 404.08C637.789 403.644 641.921 402.964 646.082 402.668C647.576 402.562 649.154 403.178 650.639 403.642C651.133 403.796 651.455 404.502 651.856 404.956C651.288 405.143 650.729 405.455 650.151 405.497C646.912 405.73 643.665 405.846 640.428 406.102C637.011 406.372 633.599 406.723 630.191 407.095C627.579 407.379 624.979 407.775 622.369 408.076C619.237 408.436 616.092 408.682 612.968 409.095C608.383 409.7 603.815 410.431 599.235 411.068C594.274 411.759 589.296 412.332 584.346 413.09C580.071 413.745 575.831 414.625 571.564 415.339C565.955 416.278 560.332 417.126 554.724 418.069C552.676 418.413 551.432 417.245 551.247 415.618C551.08 414.145 552.377 413.607 554.036 413.497C558.392 413.206 562.725 412.577 567.063 412.054C567.343 412.02 567.593 411.739 568.107 411.573Z" fill="#E7EAEE"/>
<path fill-rule="evenodd" clip-rule="evenodd" d="M633.174 463.815C627.74 464.494 622.554 465.159 617.373 465.859C615.167 466.158 612.973 466.731 610.767 466.759C610.051 466.768 608.627 465.295 608.738 464.759C608.964 463.671 609.896 462.048 610.748 461.9C614.378 461.27 618.087 461.11 621.764 460.754C625.083 460.432 628.396 460.064 631.714 459.742C635.392 459.386 639.071 459.043 642.752 458.723C646.874 458.365 650.996 458.017 655.122 457.708C657.948 457.496 660.784 457.414 663.608 457.176C666.929 456.896 670.238 456.471 673.559 456.183C676.216 455.952 678.888 455.896 681.543 455.644C684.281 455.384 687.007 454.978 689.739 454.648C690.069 454.608 690.431 454.563 690.737 454.657C691.793 454.981 692.83 455.366 693.874 455.727C692.954 456.045 692.055 456.529 691.11 456.653C685.515 457.388 679.908 458.019 674.31 458.726C670.586 459.197 666.876 459.788 663.148 460.233C659.728 460.642 656.287 460.878 652.867 461.287C651.066 461.503 649.301 462.034 647.499 462.233C643.665 462.656 639.816 462.939 635.976 463.318C635.118 463.403 634.275 463.645 633.174 463.815Z" fill="#E7EAEE"/>
<path fill-rule="evenodd" clip-rule="evenodd" d="M217.109 300.11C223.018 294.693 229.382 290.271 236.516 287.009C236.793 286.883 237.077 286.575 237.322 286.609C238.394 286.756 239.453 286.998 240.517 287.206C239.747 287.731 239.03 288.372 238.199 288.766C229.945 292.677 222.257 297.424 216.003 304.224C209.925 310.833 205.567 318.249 204.606 327.508C203.722 336.02 204.802 343.98 209.617 351.16C212.201 355.013 215.69 357.888 219.929 359.796C220.266 359.948 220.583 360.144 220.91 360.319C220.531 360.396 220.154 360.488 219.773 360.547C214.534 361.36 211.806 357.497 209.186 354.204C204.976 348.913 202.975 342.651 202.085 335.836C201.246 329.407 202.429 323.431 204.754 317.701C207.469 311.007 211.72 305.213 217.109 300.11Z" fill="#00160A"/>
<path fill-rule="evenodd" clip-rule="evenodd" d="M544.884 410.079C543.994 408.122 545.284 405.952 547.332 405.972C550.83 406.005 554.327 406.239 557.824 406.415C560.5 406.55 563.173 406.726 565.848 406.884C566.17 406.902 566.576 406.802 566.799 406.953C567.543 407.455 568.221 408.046 568.925 408.602C568.246 408.936 567.587 409.507 566.886 409.56C564.718 409.721 562.516 409.877 560.361 409.682C556.547 409.336 552.942 410.193 549.42 411.272C547.502 411.858 546.293 411.247 544.884 410.079Z" fill="#E7EAEE"/>
<path fill-rule="evenodd" clip-rule="evenodd" d="M39.6567 248.73C39.1579 251.758 38.6056 254.529 38.1796 257.319C37.9096 259.088 37.8492 260.887 37.6565 262.668C37.342 265.575 36.7892 268.473 36.7048 271.385C36.5004 278.436 36.5647 285.495 36.4142 292.549C36.269 299.351 37.5801 305.936 39.1659 312.489C39.4739 313.762 39.5671 315.262 40.3222 316.211C41.481 317.668 40.4051 318.375 39.5915 318.598C38.8144 318.812 37.298 318.431 36.9863 317.845C36.1324 316.24 35.554 314.426 35.2039 312.63C34.3171 308.079 33.2419 303.518 32.93 298.914C32.5079 292.685 32.8005 286.411 32.6544 280.16C32.4773 272.582 33.5937 265.142 34.6347 257.671C36.353 245.34 38.8099 233.184 42.7064 221.35C43.1768 219.921 44.233 218.542 45.3575 217.507C46.7311 216.243 48.8471 217.398 49.1499 219.306C49.508 221.562 48.4797 223.289 47.2397 224.995C43.507 230.131 41.6408 235.987 40.6548 242.175C40.3199 244.277 39.9893 246.379 39.6567 248.73Z" fill="#E7EAEE"/>
<path fill-rule="evenodd" clip-rule="evenodd" d="M64.827 302.499C64.6512 304.048 67.4376 305.905 64.331 306.49C63.4909 306.648 61.6527 304.969 61.2663 303.831C60.0955 300.384 58.9622 296.824 58.6475 293.243C58.2129 288.296 58.5385 283.289 58.5385 278.308C58.5385 277.73 58.5385 277.152 58.5385 276.574C58.5385 268.731 58.5743 260.889 58.5145 253.047C58.4987 250.968 58.0124 248.886 58.0731 246.814C58.1178 245.29 58.434 243.656 59.1353 242.306C59.6364 241.341 60.9313 240.273 61.9579 240.188C62.6634 240.131 64.0786 241.617 64.1936 242.525C64.4947 244.901 64.3735 247.346 64.1958 249.749C64.0578 251.615 63.4026 253.449 63.29 255.314C63.0088 259.973 62.886 264.641 62.7357 269.307C62.5411 275.347 61.9906 281.408 62.3283 287.422C62.6073 292.393 63.9536 297.31 64.827 302.499Z" fill="#E7EAEE"/>
<path fill-rule="evenodd" clip-rule="evenodd" d="M88.6036 292.437C83.8831 285.138 80.3646 277.43 78.1629 269.156C77.7189 267.488 78.1048 265.372 78.7305 263.71C79.0311 262.912 81.119 262.016 81.795 262.372C82.712 262.854 83.442 264.452 83.5685 265.648C84.0572 270.263 84.3717 274.832 85.8939 279.323C87.7436 284.78 90.9162 289.335 93.989 294.014C94.6285 294.987 96.5416 295.949 95.1923 297.185C93.8479 298.416 92.4816 296.989 91.4678 295.859C90.5147 294.796 89.6361 293.663 88.6036 292.437Z" fill="#E7EAEE"/>
<path fill-rule="evenodd" clip-rule="evenodd" d="M110.269 276.798C107.43 274.036 104.587 271.518 102.045 268.711C100.723 267.25 100.971 265.395 102.56 264.001C104.145 262.612 105.136 263.909 106.049 264.966C109.503 268.967 112.908 273.012 116.316 277.054C116.51 277.283 116.714 277.86 116.665 277.894C116.108 278.28 115.388 278.992 114.931 278.852C113.37 278.374 111.897 277.59 110.269 276.798Z" fill="#E7EAEE"/>
<path fill-rule="evenodd" clip-rule="evenodd" d="M259.831 612.621C266.25 614.228 272.447 615.748 278.563 617.522C279.685 617.847 280.482 619.203 281.429 620.082C280.101 620.167 278.687 620.576 277.457 620.281C271.104 618.759 264.741 617.233 258.492 615.369C252.36 613.54 246.359 611.306 240.304 609.239C240.016 609.14 239.776 608.918 239.499 608.779C238.016 608.038 236.437 607.285 237.605 605.296C238.682 603.461 240.357 603.506 242.016 604.443C244.449 605.818 246.688 607.553 249.222 608.706C252.567 610.228 256.117 611.336 259.831 612.621Z" fill="#E7EAEE"/>
<path fill-rule="evenodd" clip-rule="evenodd" d="M268.216 593.716C270.825 595.222 273.328 596.563 275.773 598.005C276.292 598.311 276.601 598.987 277.007 599.493C276.141 599.838 275.086 600.695 274.438 600.448C269.249 598.468 264.122 596.317 259.006 594.142C256.196 592.948 253.418 591.665 250.679 590.31C249.147 589.552 247.401 588.757 248.727 586.411C249.556 584.946 251.52 584.583 253.347 585.581C258.255 588.261 263.174 590.92 268.216 593.716Z" fill="#E7EAEE"/>
<path fill-rule="evenodd" clip-rule="evenodd" d="M253.789 565.9C253.688 562.297 255.997 560.775 258.996 562.553C264.094 565.578 269.062 568.827 274.044 572.047C275.529 573.007 276.932 574.118 278.255 575.295C278.749 575.735 278.907 576.558 279.218 577.206C278.355 577.19 277.373 577.44 276.648 577.112C272.383 575.186 268.164 573.156 263.958 571.101C260.589 569.454 257.262 567.722 253.789 565.9Z" fill="#E7EAEE"/>
<path fill-rule="evenodd" clip-rule="evenodd" d="M271.074 540.809C275.455 540.867 277.778 543.781 280.28 546.359C280.998 547.1 281.581 548.026 282.012 548.962C282.439 549.889 283.018 551.157 281.83 551.785C281.294 552.068 280.11 551.508 279.394 551.062C277.34 549.781 275.404 548.318 273.359 547.023C272.624 546.557 271.597 546.514 270.905 546.011C269.895 545.277 269.066 544.302 268.161 543.43C269.051 542.556 269.941 541.683 271.074 540.809Z" fill="#E7EAEE"/>
<path fill-rule="evenodd" clip-rule="evenodd" d="M283.491 452.226C287.105 459.725 290.002 467.461 290.969 475.803C291.487 480.277 292.08 484.746 292.434 489.234C292.756 493.308 293.003 497.409 292.912 501.49C292.804 506.373 292.277 511.245 291.977 516.124C291.768 519.517 291.735 522.924 291.447 526.309C291.042 531.071 290.394 535.812 290.002 540.575C289.704 544.181 289.506 547.807 289.514 551.423C289.523 555.538 289.819 559.653 289.973 563.769C290.15 568.465 289.753 573.266 290.604 577.835C291.877 584.673 293.623 591.486 295.889 598.061C299.221 607.728 304.986 616.13 311.346 624.04C315.274 628.926 319.807 633.264 326.191 634.948C326.273 634.97 326.345 635.738 326.181 635.882C323.825 637.942 320.896 637.104 318.412 636.772C312.859 636.03 307.366 634.719 301.911 633.385C288.05 629.995 274.208 626.525 260.389 622.967C253.656 621.233 246.998 619.214 240.293 617.371C239.306 617.099 238.034 616.65 237.259 617.029C233.35 618.945 230.33 616.84 227.457 614.892C221.159 610.623 217.587 604.423 215.734 597.139C213.179 587.089 215.233 577.498 218.941 568.203C221.387 562.074 224.303 556.121 227.231 550.201C230.203 544.191 233.934 538.637 238.456 533.671C239.984 531.993 241.842 530.619 243.502 529.057C245.779 526.913 245.898 523.973 246.086 521.172C246.303 517.926 245.811 514.603 246.277 511.408C247.86 500.551 252.65 490.804 257.688 481.261C260.2 476.503 263.39 471.983 266.932 467.932C269.56 464.927 273.016 462.495 277.086 461.342C278.334 460.988 278.687 460.702 277.757 459.146C276.41 456.892 274.515 454.274 276.897 451.257C279.747 448.405 281.804 448.726 283.491 452.226ZM287.279 474.865C287.181 474.962 287.018 475.046 286.997 475.158C286.812 476.111 286.791 477.119 286.464 478.018C285.024 481.988 283.91 486.151 281.917 489.831C277.919 497.212 272.816 503.86 266.788 509.744C261.532 514.874 256.2 519.927 250.988 525.101C248.017 528.051 244.96 530.974 242.401 534.266C238.295 539.548 233.982 544.809 230.839 550.661C227.188 557.459 224.452 564.793 221.809 572.073C220.149 576.645 219.024 581.493 218.329 586.313C217.582 591.494 218.58 596.661 220.923 601.383C222.65 604.864 225.082 607.749 229.066 609.003C233.829 610.504 238.507 612.277 243.26 613.815C253.806 617.228 264.317 620.774 274.957 623.87C282.923 626.188 291.048 627.979 299.143 629.828C303.727 630.875 308.39 631.583 313.028 632.38C313.395 632.443 313.848 632.003 314.26 631.797C314.053 631.503 313.873 631.184 313.634 630.919C311.939 629.041 310.052 627.308 308.566 625.279C304.473 619.695 299.99 614.295 296.678 608.263C290.802 597.559 286.863 586.081 285.98 573.736C285.708 569.935 285.325 566.143 284.993 561.847C284.993 557.081 284.801 552.305 285.052 547.551C285.267 543.476 286 539.43 286.485 535.368C286.835 532.433 286.952 529.454 287.527 526.566C288.628 521.045 288.11 518.816 283.414 515.667C281.231 514.203 278.489 512.792 278.383 509.727C278.338 508.43 279.377 506.89 280.358 505.887C280.654 505.584 282.748 506.428 283.43 507.242C284.976 509.084 286.144 511.242 287.496 513.252C287.714 513.576 288.089 513.794 288.391 514.06C288.587 513.726 288.925 513.405 288.956 513.056C289.166 510.718 289.455 508.375 289.441 506.035C289.424 503.028 289.124 500.024 288.984 497.017C288.797 492.986 288.665 488.953 288.475 484.923C288.34 482.053 288.178 479.184 287.955 476.32C287.916 475.82 287.513 475.349 287.279 474.865ZM277.021 464.598C271.682 466.439 268.008 470.361 265.118 474.897C259.351 483.949 254.759 493.628 251.761 503.947C250.364 508.754 249.769 513.806 251.64 518.744C251.75 519.033 252.518 519.396 252.573 519.338C259.724 511.781 266.906 504.253 273.931 496.579C281.099 488.749 283.806 479.408 282.467 468.939C281.859 464.189 281.524 464.068 277.021 464.598ZM662.556 388.553C664.802 388.795 667.369 389.955 668.97 391.536C673.016 395.53 676.602 399.993 680.363 404.276C682.669 406.903 684.978 409.526 687.247 412.184C692.03 417.786 696.776 423.419 701.562 429.018C703.049 430.757 704.64 432.406 706.132 434.14C706.56 434.637 706.811 435.287 707.144 435.867C706.673 435.482 706.164 435.134 705.736 434.706C694.427 423.383 683.163 412.015 671.804 400.743C668.084 397.052 663.858 393.928 658.756 392.473C653.379 390.939 647.9 390.418 642.266 391.342C639.428 391.807 636.448 391.326 633.539 391.443C627.064 391.702 620.596 392.128 614.121 392.366C610.327 392.505 606.519 392.284 602.728 392.46C598.672 392.647 594.628 393.106 590.579 393.454C586.855 393.774 583.129 394.074 579.409 394.437C576.462 394.725 573.527 395.13 570.58 395.421C566.835 395.791 563.074 396.014 559.339 396.457C556.172 396.833 553.036 397.455 549.88 397.928C546.371 398.454 542.852 398.913 539.343 399.442C533.94 400.256 528.542 401.096 523.151 401.981C522.951 402.013 522.62 402.793 522.734 402.957C523.732 404.396 524.759 405.823 525.886 407.162C531.516 413.846 537.221 420.468 542.818 427.179C549.165 434.788 555.309 442.569 561.764 450.084C566.295 455.357 570.759 460.797 577.154 464.047C577.359 464.151 577.541 464.299 577.733 464.427C577.5 464.466 577.241 464.592 577.037 464.532C573.131 463.387 569.056 462.916 566.205 459.223C560.94 452.404 555.269 445.902 549.854 439.198C543.153 430.904 536.782 422.326 528.821 415.143C528.173 414.559 527.495 413.952 526.726 413.568C525.02 412.718 523.453 412.432 522.123 414.449C519.475 418.465 516.586 422.32 513.942 426.338C512.177 429.018 512.75 430.331 515.94 432.502C524.341 438.217 533.465 442.286 543.227 445.059C547.292 446.213 551.323 447.678 554.212 451.1C554.417 451.342 554.636 451.573 554.848 451.809C554.505 451.775 554.138 451.811 553.823 451.699C540.676 447.05 527.514 442.444 514.412 437.672C512.259 436.888 510.277 435.5 508.397 434.14C507.197 433.272 507.254 431.971 508.037 430.575C510.73 425.779 513.305 420.917 515.899 416.066C516.075 415.737 516.152 414.976 516.091 414.955C515.429 414.729 514.7 414.399 514.049 414.498C511.329 414.912 508.588 415.303 505.932 415.997C499.935 417.562 493.98 419.291 488.021 421.002C487.673 421.102 487.445 421.624 487.161 421.949C488.668 423.126 490.176 424.303 491.808 425.605C498.122 431.1 504.316 436.464 510.498 441.842C513.81 444.723 517.1 447.628 520.4 450.521C520.535 450.64 520.676 450.753 520.814 450.868C520.502 450.92 520.164 451.078 519.883 451.007C515.875 449.993 511.946 448.973 508.666 446.082C500.834 439.179 492.811 432.494 484.909 425.669C483.285 424.266 481.707 422.756 480.37 421.084C478.692 418.987 479.075 417.539 481.723 416.518C483.814 415.712 486.098 415.341 488.329 414.985C494.981 413.921 501.645 412.928 508.314 411.972C511.244 411.552 514.198 411.306 517.137 410.941C517.662 410.875 518.162 410.613 518.674 410.442C518.42 410.029 518.226 409.56 517.903 409.211C515.329 406.432 512.732 403.675 510.141 400.913C509.913 400.67 509.671 400.44 509.435 400.204C509.804 400.115 510.168 399.997 510.541 399.942C517.369 398.934 524.196 397.92 531.027 396.937C535.513 396.292 539.997 395.624 544.497 395.095C549.102 394.554 553.721 394.115 558.342 393.733C562.474 393.392 566.623 393.248 570.755 392.904C573.403 392.684 576.025 392.162 578.673 391.948C581.982 391.68 585.31 391.638 588.624 391.411C592.763 391.127 596.894 390.711 601.034 390.435C604.514 390.202 608.006 390.139 611.486 389.904C614.293 389.714 617.086 389.301 619.894 389.131C622.637 388.965 625.392 388.983 628.141 388.919C635.26 388.752 642.378 388.549 649.498 388.431C653.854 388.359 658.248 388.089 662.556 388.553ZM248.466 371.749C250.365 371.946 252.306 371.689 254.219 371.802C258.884 372.079 263.54 372.507 268.205 372.769C272.547 373.012 276.91 372.962 281.24 373.329C285.673 373.705 288.328 375.557 288.043 380.87C287.787 385.662 287.699 390.463 287.529 395.26C287.37 399.724 287.196 404.187 287.042 408.651C287.019 409.311 287.042 409.975 287.085 410.634C287.122 411.206 287.216 411.774 287.285 412.343C287.121 412.344 286.832 412.393 286.811 412.337C286.576 411.721 286.273 411.102 286.199 410.459C285.939 408.207 285.77 405.944 285.554 403.687C285.231 400.319 284.905 396.952 284.565 393.586C284.393 391.884 284.197 390.183 283.997 388.484C283.873 387.428 283.753 386.37 283.566 385.324C283.486 384.879 283.24 384.464 283.07 384.035C282.721 384.233 282.302 384.362 282.034 384.641C278.761 388.041 276.524 392.007 275.666 396.726C275.572 397.243 275.26 397.719 275.049 398.215C274.874 397.777 274.731 397.323 274.521 396.903C270.699 389.254 264.678 384.172 256.455 382.435C252.697 381.641 248.64 382.317 244.719 382.292C242.745 382.28 242.419 383.414 242.59 385.1C242.964 388.767 243.245 392.444 243.596 396.114C244.073 401.108 244.585 406.099 245.07 411.092C245.411 414.596 245.688 418.107 246.087 421.604C246.199 422.588 246.647 423.531 246.928 424.496C247.059 424.947 247.159 425.408 247.274 425.865C246.772 425.517 245.957 425.263 245.823 424.804C245.146 422.489 244.649 420.12 244.085 417.771C243.429 415.043 242.769 412.317 242.11 409.34C241.452 404.696 240.546 400.322 240.195 395.902C239.699 389.656 238.743 383.34 240.134 377.121C240.922 373.6 244.94 371.382 248.466 371.749ZM235.077 384.021C236.104 384.384 236.879 385.479 237.764 386.255C237.153 386.965 236.645 387.818 235.911 388.355C234.302 389.529 232.385 390.327 230.942 391.663C227.513 394.839 229.135 401.15 232.694 402.817C234.335 403.586 235.975 404.369 237.56 405.247C238.134 405.565 238.546 406.181 239.032 406.66C238.441 406.676 237.849 406.692 237.258 406.707C233.459 406.806 230.61 405.05 228.482 401.996C225.276 397.394 226.978 392.894 230.753 389.294C231.109 388.955 231.431 388.579 231.795 388.249C232.263 387.824 232.757 387.429 233.241 387.02C232.301 386.9 231.265 386.461 230.439 386.717C227.358 387.674 225.608 390.249 224.672 393.067C221.459 402.744 229.055 410.582 237.674 409.573C238.584 409.467 239.567 410.001 240.517 410.238C240.288 410.382 240.077 410.58 239.829 410.661C232.613 413.014 226.465 410.347 222.979 403.376C222.739 402.895 222.41 402.459 222.122 401.755C220.454 393.207 224.016 386.832 231.832 384.283C232.856 383.949 234.133 383.688 235.077 384.021ZM243.864 374.319C242.334 374.67 241.797 376.322 242.607 377.789C243.715 379.797 245.423 379.871 247.483 379.668C250.732 379.346 254.043 379.095 257.282 379.372C261.388 379.722 265.429 380.844 269.535 381.232C272.955 381.555 276.428 381.298 280.125 381.048C281.569 380.964 283.013 380.856 284.458 380.804C286.195 380.74 287.188 379.349 286.252 377.861C285.678 376.948 284.494 375.997 283.485 375.871C279.264 375.344 275.01 375.035 270.76 374.818C267.755 374.665 264.73 374.909 261.725 374.76C257.174 374.534 252.636 374.058 248.086 373.824C246.687 373.752 245.241 374.003 243.864 374.319ZM469.071 356.244C474.097 356.344 479.11 357.157 484.127 357.678C484.501 357.717 484.905 357.834 485.217 358.038C485.872 358.465 486.475 358.975 487.099 359.451C486.302 359.529 485.506 359.629 484.708 359.683C479.704 360.027 474.701 360.39 469.694 360.666C468.862 360.712 467.999 360.177 467.166 360.221C461.993 360.499 456.827 360.908 451.653 361.168C450.489 361.226 449.295 360.67 448.131 360.73C443.123 360.988 438.123 361.404 433.115 361.675C432.2 361.725 431.254 361.184 430.339 361.232C425.166 361.505 420 361.914 414.826 362.178C413.745 362.234 412.633 361.682 411.552 361.739C406.545 362.001 401.544 362.417 396.537 362.684C395.539 362.737 394.51 362.191 393.512 362.243C388.338 362.511 383.172 362.917 377.999 363.19C377.083 363.238 376.138 362.698 375.223 362.747C370.049 363.019 364.883 363.418 359.709 363.696C358.877 363.74 358.015 363.206 357.182 363.251C352.009 363.528 346.843 363.937 341.669 364.197C340.505 364.255 339.31 363.699 338.147 363.759C333.139 364.017 328.138 364.433 323.131 364.704C322.216 364.754 321.27 364.213 320.355 364.261C315.182 364.534 310.015 364.94 304.842 365.209C303.843 365.26 302.815 364.715 301.817 364.767C296.726 365.035 291.643 365.445 286.552 365.713C285.554 365.766 284.526 365.22 283.528 365.272C278.354 365.54 273.188 365.95 268.014 366.218C267.016 366.27 265.987 365.724 264.99 365.777C259.982 366.044 254.981 366.452 249.974 366.724C249.059 366.773 248.113 366.232 247.198 366.281C242.025 366.553 236.858 366.949 231.685 367.231C230.935 367.271 230.154 366.739 229.406 366.785C225.14 367.047 220.882 367.446 216.615 367.713C213.711 367.894 210.789 367.816 207.893 368.067C203.755 368.426 199.608 368.821 195.513 369.501C192.31 370.032 189.206 371.188 186 371.695C185.097 371.838 183.766 370.859 183.088 370.017C182.801 369.661 183.447 368.022 184.09 367.493C186.727 365.324 189.901 364.955 193.434 365.24C195.633 365.072 197.583 364.914 199.532 364.733C203.073 364.404 206.606 363.958 210.153 363.751C214.834 363.478 219.526 363.232 224.212 363.256C232.079 363.296 239.944 363.667 247.811 363.689C253.658 363.705 259.506 363.399 265.354 363.218C270.289 363.064 275.224 362.881 280.16 362.717C285.344 362.544 290.528 362.382 295.712 362.21C300.648 362.046 305.586 361.927 310.518 361.692C316.383 361.414 322.241 360.992 328.106 360.729C329.354 360.673 330.627 361.217 331.878 361.171C339.317 360.896 346.753 360.519 354.191 360.2C355.544 360.142 356.907 360.268 358.256 360.177C362.682 359.878 367.102 359.475 371.53 359.215C372.526 359.157 373.557 359.711 374.554 359.654C379.065 359.393 383.567 358.979 388.077 358.708C388.908 358.658 389.774 359.201 390.604 359.15C395.032 358.88 399.451 358.465 403.879 358.205C404.875 358.147 405.906 358.701 406.903 358.644C411.414 358.383 415.916 357.961 420.427 357.7C421.423 357.643 422.455 358.198 423.451 358.138C427.796 357.88 432.131 357.45 436.477 357.197C437.556 357.134 438.671 357.696 439.75 357.633C444.095 357.379 448.431 356.962 452.776 356.688C453.523 356.641 454.305 357.177 455.054 357.133C459.73 356.855 464.407 356.151 469.071 356.244ZM468.987 108.818C479.944 109.832 490.267 113.343 499.77 118.767C505.355 121.955 510.548 125.898 515.634 129.861C523.524 136.009 529.722 143.712 535.074 152.111C539.065 158.376 542.554 164.918 544.626 172.041C546.51 178.517 548.195 185.1 549.247 191.749C550.006 196.552 549.557 201.54 549.698 206.444C549.842 211.456 549.317 216.399 548.783 221.384C547.481 233.554 545.197 245.476 541.778 257.235C540.294 262.338 541.365 267.618 542.338 272.785C543.19 277.311 544.76 281.54 547.169 285.473C547.46 285.947 547.436 286.612 547.558 287.188C546.941 287.148 546.291 287.219 545.712 287.05C541.533 285.83 540.179 282.423 539.182 278.692C538.468 276.015 537.822 273.283 536.73 270.753C535.482 267.86 534.997 268.135 532.257 269.499C526.616 272.307 520.883 274.973 515.028 277.302C507.098 280.457 498.758 282.092 490.322 283.413C485.742 284.131 481.117 285.527 477.669 288.869C476.066 290.423 474.823 292.629 474.14 294.768C473.284 297.447 473.089 300.27 474.681 303.043C475.625 304.687 476.617 304.965 478.187 304.533C485.808 302.437 493.374 300.11 501.067 298.323C506.976 296.95 513.066 296.375 519.034 295.23C525.228 294.042 531.464 293.751 537.738 293.779C538.21 293.781 538.681 293.905 539.153 293.972C538.725 294.071 538.3 294.179 537.871 294.267C532.039 295.46 526.203 296.631 520.376 297.847C515.096 298.95 509.83 300.121 504.55 301.227C498.649 302.464 492.727 303.604 486.84 304.901C483.967 305.534 481.094 306.264 478.324 307.241C474.459 308.604 473.245 311.001 473.033 315.383C472.794 320.315 473.646 324.932 474.832 329.509C476.962 337.726 480.613 345.218 486.517 351.555C491.479 356.881 497.075 361.195 504.189 363.032C508.025 364.023 512.035 364.647 515.991 364.798C520.924 364.985 525.72 364.062 530.398 362.095C536.26 359.631 540.788 355.758 544.148 350.577C547.838 344.884 550.267 338.589 551.142 331.847C551.869 326.251 552.627 320.598 552.583 314.976C552.52 306.87 550.841 298.96 547.705 291.413C547.51 290.943 546.749 290.282 548.244 290.239C552.198 290.125 556.122 293.727 556.174 297.836C556.222 301.595 556.348 305.363 556.148 309.112C555.788 315.904 563.044 324.784 569.024 326.316C570.332 326.65 570.45 326.188 570.13 325.512C566.484 317.799 568.722 310.259 570.887 302.808C575.068 288.42 580.799 274.594 586.537 260.768C592.149 247.247 597.537 233.634 602.986 220.047C607.608 208.522 612.155 196.968 616.774 185.442C621.221 174.343 625.715 163.263 630.195 152.178C630.338 151.823 630.573 151.504 630.714 151.148C630.98 150.474 631.208 149.784 631.452 149.101C630.756 149.571 629.894 149.909 629.388 150.533C623.403 157.915 617.831 165.666 611.427 172.663C604.582 180.142 597.15 187.122 589.623 193.934C584.246 198.8 578.291 203.035 572.583 207.537C572.049 207.958 571.432 208.275 570.853 208.641C570.908 207.967 571.031 207.292 571.008 206.621C570.833 201.476 575.612 201.013 578.487 198.766C582.814 195.383 587.313 192.203 591.497 188.653C599.292 182.039 605.496 173.966 611.816 166.013C613.525 163.863 615.355 161.809 617.254 159.586C622.795 153.571 628.009 147.478 633.688 141.85C638.668 136.915 644.203 132.6 651.195 130.57C654.313 129.664 659.98 131.742 662.077 135.028C664.265 138.458 665.136 142.218 665.125 146.306C665.102 154.792 663.373 163.014 661.58 171.233C659.622 180.201 657.724 189.184 655.544 198.099C654.265 203.328 652.761 208.538 650.878 213.578C646.397 225.569 641.849 237.544 636.896 249.345C634.077 256.06 630.592 262.522 627.047 268.901C625.082 272.437 622.179 275.132 617.509 274.92C615.596 274.833 614.366 277.058 614.102 279.775C613.719 283.726 613.393 287.711 612.578 291.585C610.928 299.427 607.41 306.558 603.194 313.314C600.007 318.418 596.466 323.301 593.177 328.345C590.9 331.837 587.883 334.656 583.752 334.874C581.163 335.01 578.471 333.37 575.845 332.47C575.417 332.324 575.041 331.926 574.729 331.568C573.441 330.095 572.451 327.92 570.846 327.296C569.344 326.713 567.16 328.183 565.352 328.001C562.262 327.69 559.678 326.088 557.789 323.507C557.42 323.004 557.001 321.833 556.6 323.758C555.512 328.979 554.133 334.15 552.663 339.281C549.983 348.633 545.021 356.675 537.438 362.797C532.738 366.592 527.322 369.105 520.978 369.453C514.543 369.806 508.775 368.063 503.017 365.504C494.868 361.883 487.707 356.948 481.015 351.09C471.417 342.688 464.14 332.622 459.145 321.069C456.35 314.606 454.711 307.625 452.819 300.804C450.912 293.93 448.513 287.338 444.569 281.311C440.995 275.848 438.388 269.877 437.4 263.412C437.07 261.257 437.804 258.859 438.391 256.663C439.561 252.292 440.206 247.88 439.218 243.454C438.726 241.249 437.376 239.247 436.595 237.089C433.458 228.432 430.16 219.822 427.381 211.05C425.465 205.001 424.139 198.749 422.864 192.523C422.048 188.537 421.794 184.435 421.31 180.383C420.957 177.426 420.525 174.473 420.335 171.506C420.061 167.242 420.118 162.954 419.772 158.698C419.325 153.208 420.139 147.771 421.49 142.611C422.811 137.564 425.392 132.78 427.864 128.114C430.73 122.708 434.653 118.067 439.96 114.781C444.7 111.846 449.759 109.666 455.382 109.254C459.908 108.921 464.502 108.404 468.987 108.818ZM432.917 241.292C432.603 241.811 432.413 242.557 431.952 242.812C429.258 244.301 426.562 245.815 423.752 247.058C418.982 249.167 414.127 251.082 409.058 253.079C401.137 256.606 393.307 259.831 385.837 263.745C378.396 267.644 371.478 272.429 365.02 277.905C355.566 285.92 347.938 295.325 343.01 306.679C340.997 311.319 339.617 316.402 338.945 321.417C338.055 328.052 338.164 334.82 337.805 341.528C337.503 347.159 337.17 352.788 336.803 358.414C336.664 360.537 335.013 358.962 334.147 359.348C334.078 359.378 333.358 358.524 333.402 358.132C333.818 354.389 334.568 350.67 334.763 346.92C335.007 342.192 334.784 337.442 334.83 332.702C334.918 323.619 336.649 314.899 340.428 306.587C343.947 298.846 348.692 291.991 354.326 285.645C362.828 276.069 373.006 268.74 384.103 262.565C394.599 256.725 405.48 251.736 416.745 247.557C421.631 245.744 426.389 243.584 431.218 241.613C431.741 241.399 432.349 241.394 432.917 241.292ZM566.172 351.219C570.487 351.826 574.783 352.58 579.093 353.226C581.723 353.62 584.357 354.113 587.002 354.23C590.88 354.401 594.771 354.209 598.653 354.295C601.499 354.359 604.341 354.601 607.182 354.8C609.196 354.94 611.203 355.257 613.217 355.289C617.875 355.363 622.535 355.363 627.194 355.302C638.108 355.161 649.021 354.854 659.935 354.87C662.724 354.875 665.511 355.833 668.301 356.348C668.462 356.377 668.698 356.277 668.789 356.363C669.427 356.971 670.036 357.611 670.654 358.241C669.847 358.304 669.04 358.418 668.232 358.421C662.713 358.436 657.192 358.477 651.673 358.405C649.494 358.377 647.321 357.986 645.14 357.927C637.14 357.71 629.138 357.547 621.136 357.399C618.279 357.345 615.421 357.39 612.314 357.39C608.736 357.39 605.407 357.453 602.08 357.376C596.99 357.258 591.902 356.96 586.811 356.892C580.377 356.805 573.938 356.993 567.508 356.817C564.497 356.734 561.489 356.15 558.502 355.646C556.833 355.365 556.444 353.818 556.998 352.56C557.38 351.692 558.659 350.781 559.577 350.734C561.764 350.622 563.987 350.911 566.172 351.219ZM438.446 247.017C438.269 247.116 438.038 247.172 437.922 247.318C434.289 251.909 430.247 256.245 427.146 261.17C422.978 267.788 419.536 274.874 417.478 282.492C416.365 286.611 415.561 290.813 414.593 294.971C413.958 297.698 412.519 299.95 410.163 301.461C407.034 303.468 403.718 305.192 400.635 307.264C392.958 312.42 388.095 319.721 385.261 328.382C383.675 333.228 382.676 338.189 383.593 343.379C384.151 346.534 384.384 349.747 384.732 352.937C384.787 353.445 384.682 353.97 384.652 354.487C383.978 354.426 382.981 354.621 382.692 354.256C381.901 353.256 381.045 352.076 380.865 350.871C380.326 347.274 380.113 343.628 379.738 340.005C379.66 339.25 379.433 338.51 379.275 337.762C378.604 338.508 377.835 339.188 377.276 340.011C373.549 345.503 369.88 351.033 366.145 356.519C365.872 356.92 365.232 357.073 364.763 357.341C364.642 356.503 364.148 355.47 364.466 354.861C365.648 352.598 366.941 350.357 368.479 348.324C372.077 343.566 376.155 339.139 379.424 334.175C381.579 330.902 382.746 326.96 384.208 323.259C385.704 319.471 388.066 316.371 391.12 313.733C394.972 310.406 398.807 307.058 402.774 303.595C405.47 300.738 408.354 298.231 410.535 295.217C413.412 291.242 414.435 286.397 415.6 281.679C418.063 271.699 422.448 262.652 428.921 254.639C430.534 252.643 432.062 250.548 433.901 248.78C434.9 247.819 436.464 247.436 437.792 246.834C437.95 246.763 438.225 246.95 438.446 247.017ZM78.0094 158.547C80.7962 159.268 81.1992 161.69 79.0675 163.54C74.2273 167.741 71.9241 173.104 71.5694 179.332C71.3735 182.772 71.6957 186.241 71.5047 189.681C70.8752 201.023 74.1872 211.463 79.092 221.422C83.7811 230.944 90.609 238.785 100.406 243.366C106.028 245.994 112.04 247.839 117.96 249.783C123.102 251.472 128.371 252.776 133.568 254.304C138.667 255.803 143.689 257.163 149.091 255.361C151.862 254.437 153.942 256.916 152.88 259.602C148.867 269.758 145.448 280.3 138.398 288.864C134.17 294.001 129.278 298.755 124.044 302.88C116.361 308.935 107.527 313.252 98.7021 317.505C90.095 321.653 81.6818 326.203 73.0366 330.267C63.2974 334.846 53.4278 339.157 43.5516 343.44C35.5839 346.895 27.5403 350.181 19.4887 353.44C17.5634 354.219 15.5011 354.766 13.4493 355.106C11.3934 355.446 6.87687 352.223 6.07002 350.092C4.02245 344.685 2.63062 339.125 2.05582 333.362C1.70602 329.855 1.23519 326.36 0.693789 322.86C0.568848 322.611 0.568848 322.363 0.693787 321.99C0.902019 317.194 0.989354 312.522 1.04737 307.849C1.04897 307.721 0.735433 307.588 0.568848 307.458V305.594C0.652123 305.47 0.808305 305.473 0.808415 305.47C0.965816 301.145 1.09963 296.819 1.26756 292.495C1.32182 291.097 1.47985 289.704 1.56611 288.308C2.2824 276.713 3.66 265.192 6.6273 253.951C8.99521 244.98 12.1219 236.255 15.9221 227.733C20.2569 218.011 25.5271 208.87 31.5995 200.178C34.6933 195.749 38.0724 191.482 41.6678 187.445C45.9937 182.589 50.4383 177.78 55.2863 173.455C60.821 168.517 66.7688 164.016 72.7417 159.599C74.0716 158.616 76.4224 158.136 78.0094 158.547ZM70.7465 165.362C70.4659 165.488 70.1486 165.566 69.91 165.747C62.4003 171.439 54.9359 177.189 48.7173 184.332C44.8542 188.769 40.9052 193.144 37.258 197.752C28.3937 208.953 21.5341 221.297 16.3112 234.919C16.1339 235.427 15.9281 235.926 15.7835 236.443C13.5393 244.461 11.1646 252.447 9.12802 260.517C8.22456 264.097 7.96519 267.843 7.49119 271.524C6.96958 275.574 6.38864 279.626 6.11247 283.695C5.88495 287.048 6.19147 290.434 6.03186 293.795C5.83359 297.97 5.25635 302.128 5.11645 306.303C5.02193 309.124 5.47714 311.958 5.54655 314.789C5.6304 318.21 5.50253 321.636 5.58635 325.057C5.6551 327.862 5.7224 330.688 6.11143 333.46C6.58782 336.855 7.43649 340.197 8.05624 343.573C8.95111 348.449 10.9544 350.337 15.7287 350.682C19.0748 350.925 21.6179 348.947 22.0863 345.813C22.1433 345.432 22.7432 344.768 22.8212 344.805C27.0395 346.785 30.7012 344.79 34.398 343.222C42.2535 339.889 50.1442 336.63 57.921 333.123C69.492 327.905 81.0151 322.578 92.4816 317.136C97.8463 314.59 103.115 311.815 108.279 308.887C118.357 303.171 127.571 296.393 135.032 287.379C140.815 280.393 144.39 272.451 146.462 263.761C146.855 262.111 146.276 260.678 144.302 260.254C138.954 259.106 133.617 257.898 128.26 256.789C117.372 254.535 106.848 251.395 97.0626 245.898C84.4983 238.841 76.4497 228.182 71.6163 215.015C69.3233 208.769 67.4816 202.296 67.5292 195.494C67.5649 190.388 67.1153 185.235 67.6595 180.186C68.1625 175.52 69.7047 170.965 70.7705 166.356C70.8429 166.043 70.7582 165.694 70.7465 165.362ZM280.251 239.169C283.228 241.214 286.174 243.311 289.06 245.485C289.842 246.074 289.903 246.66 290.258 245.118C290.812 242.708 294.24 242.036 296.294 243.748C301.002 247.675 303.378 252.955 305.101 258.696C306.596 263.677 306.003 268.739 306.149 273.77C306.242 277 309.267 279.436 312.442 279.566C314.789 279.662 317.258 280.692 319.37 281.857C324.479 284.675 327.765 289.122 329.379 294.723C331.118 300.755 329.5 306.125 326.003 311.137C322.824 315.695 319.928 320.47 315.313 323.812C312.76 325.661 309.819 327.196 307.821 329.531C305.675 332.039 303.211 333.674 300.288 334.801C293.089 337.579 285.223 333.976 281.698 327.974C278.522 322.565 270.874 323.754 267.91 328.137C266.618 330.049 266.262 332.574 265.296 334.738C264.704 336.066 265.279 335.864 266.167 335.732C270.567 335.078 274.971 334.453 279.375 333.83C279.601 333.798 279.844 333.886 280.079 333.918C279.904 334.052 279.743 334.209 279.553 334.316C275.186 336.784 270.458 338.177 265.515 338.767C261.769 339.214 257.941 339.929 254.248 339.551C251.339 339.253 248.378 337.808 245.808 336.26C242.777 334.435 241.867 331.337 241.925 327.715C242.039 320.684 244.737 314.751 249.19 309.608C250.472 308.126 252.737 307.503 254.54 306.465C255.224 306.07 256.222 306.021 255.011 304.748C249.722 299.194 245.025 293.177 241.811 286.133C241.303 285.021 240.78 283.874 240.558 282.689C240.422 281.961 240.625 280.92 241.098 280.418C241.395 280.101 242.577 280.328 243.175 280.655C244.071 281.145 244.781 281.964 245.609 282.593C247.019 283.665 247.802 283.209 247.42 281.537C246.334 276.785 247.332 272.274 249.004 267.915C249.905 265.564 251.371 263.419 252.732 261.276C252.862 261.073 254.171 261.381 254.741 261.749C255.797 262.432 256.712 263.335 257.686 264.147C257.752 262.848 257.772 261.545 257.9 260.252C257.975 259.484 258.164 258.716 258.397 257.977C259.564 254.276 260.19 254.089 263.279 256.41C263.693 256.721 264.189 256.924 264.647 257.177L264.781 256.235C264.801 256.078 264.819 255.921 264.832 255.763C265.173 251.696 264.359 248.006 261.386 244.986C261.35 244.95 261.996 243.889 262.367 243.859C266.65 243.523 270.933 243.345 274.851 245.634C275.652 246.101 276.451 246.572 277.375 247.166C277.747 246.828 278.164 246.383 278.215 245.899C278.447 243.709 278.552 241.505 278.805 239.318C278.819 239.2 279.93 238.949 280.251 239.169ZM251.716 309.992C251.62 310.173 251.558 310.388 251.422 310.531C246.549 315.675 244.276 321.786 244.457 328.872C244.555 332.72 246.606 335.554 250.455 336.256C252.901 336.702 255.438 336.682 257.938 336.751C258.24 336.759 258.733 336.054 258.848 335.605C259.585 332.743 259.533 329.551 262.601 327.357C263.457 327.025 264.314 326.697 265.168 326.361C265.557 326.209 266.245 326.07 266.262 325.877C266.298 325.469 266.102 324.836 265.788 324.642C264.949 324.123 264.03 323.55 263.085 323.419C258.726 322.813 255.633 320.516 253.859 316.561C253.015 314.681 252.556 312.627 251.924 310.652C251.853 310.433 251.785 310.212 251.716 309.992ZM263.346 329.098C263.014 330.351 262.635 331.595 262.399 332.866C262.36 333.079 263.028 333.691 263.223 333.632C264.014 333.391 264.268 329.589 263.346 329.098ZM281.417 241.875C281.684 242.788 282.06 243.685 282.195 244.618C282.499 246.733 282.317 248.755 280.239 250.001C278.578 250.997 277.335 249.801 276.205 248.926C273.641 246.943 270.611 246.684 267.6 246.306C265.956 246.1 265.881 246.776 266.418 248.192C267.209 250.273 268.192 252.484 268.131 254.611C268.092 255.946 266.386 257.323 265.248 258.508C264.187 259.614 263.171 259.091 262.331 257.999C262.202 257.832 261.788 257.885 261.505 257.836C261.525 258.285 261.466 258.754 261.577 259.179C262.235 261.707 261.292 264.15 258.641 265.603C256.806 266.609 255.513 265.075 254.398 263.886C253.559 262.992 253.482 263.535 253.127 264.216C250.03 270.141 249.675 276.34 251.319 282.709C251.727 284.293 250.999 285.081 249.692 285.02C248.17 284.95 246.676 284.351 245.157 284.046C244.454 283.905 243.72 283.916 243 283.858C243.196 284.551 243.286 285.298 243.603 285.929C246.231 291.157 249.61 295.886 253.995 299.729C256.581 301.996 258.169 303.985 258.091 307.896C257.99 313.004 260.709 317.182 265.424 319.959C269.18 322.172 273.174 321.71 277.136 321.846C279.163 321.916 280.638 322.616 281.844 324.224L282.324 324.866C284.798 328.185 287.245 331.491 291.674 332.651C296.668 333.959 301.233 333.437 305.083 329.917C305.885 329.184 305.893 327.432 305.928 326.14C305.935 325.906 304.309 325.492 303.412 325.391C299.825 324.991 296.22 325.9 292.599 324.921C287.483 323.536 282.783 321.498 278.907 317.808C278.176 317.112 277.561 316.294 276.892 315.532C278.071 315.81 279.252 316.078 280.426 316.372C280.72 316.445 281.055 316.532 281.267 316.727C286.748 321.777 293.179 323.978 300.614 323.391C308.159 322.796 312.045 318.835 312.434 312.214C312.836 305.375 311.516 298.752 308.369 292.553C307.914 291.656 307.919 290.412 308.028 289.362C308.455 285.284 309.479 281.167 305.101 278.267C304.366 277.779 304.162 276.149 304.111 275.028C303.962 271.705 302.915 270.465 299.672 270.164C297.694 269.98 296.585 268.796 296.133 266.939C296.003 266.4 296.009 265.828 295.952 265.272C295.426 265.747 294.758 266.133 294.396 266.712C292.561 269.649 289.824 271.465 286.947 273.222C285.489 274.113 285.018 274.011 284.657 272.362C284.487 271.586 283.856 270.911 283.435 270.19C283.029 270.768 282.608 271.335 282.221 271.925C281.709 272.703 281.348 273.625 280.705 274.265C278.408 276.549 276.088 278.823 273.612 280.904C273.073 281.357 271.456 281.365 271.046 280.92C270.505 280.334 270.577 279.102 270.552 278.143C270.526 277.189 270.762 276.229 270.767 275.272C270.769 274.897 270.473 274.219 270.281 274.207C269.871 274.183 269.238 274.383 269.05 274.701L268.077 276.341C267.103 277.984 266.147 279.639 265.364 281.371C263.266 286.01 262.407 290.937 262.291 296.028C262.275 296.745 261.51 297.517 260.935 298.11C260.738 298.313 259.722 298.162 259.66 297.977C259.391 297.174 259.182 296.289 259.238 295.453C259.328 294.128 259.67 292.821 259.865 291.5C261.042 283.527 264.494 276.747 270.451 271.292C270.67 271.092 271.432 271.077 271.445 271.121C271.986 272.97 272.491 274.83 272.947 276.703C273.05 277.125 272.955 277.596 272.951 278.045C273.351 277.863 273.797 277.745 274.142 277.489C277.91 274.701 280.926 271.267 283.088 267.082C283.609 266.073 284.338 265.173 284.972 264.222L286.083 266.247C286.452 266.922 286.816 267.6 287.164 268.287C287.298 268.55 287.086 268.986 287.215 269.256C287.31 269.457 287.867 269.683 287.93 269.618C289.855 267.63 291.705 265.568 293.659 263.611C294.408 262.861 295.82 261.625 296.177 261.843C297.339 262.555 298.193 263.805 299.072 264.921C299.273 265.176 298.949 265.822 299.135 266.12C299.475 266.663 300.201 267.562 300.441 267.47C301.649 267.002 302.863 266.391 303.838 265.554C304.228 265.219 304.01 264.174 303.82 263.204C302.817 256.864 300.314 251.258 295.744 246.665C295.457 246.376 295.16 246.096 294.867 245.812C294.789 246.194 294.711 246.575 294.632 246.957C294.196 249.062 291.931 250.33 290.297 249.055C288.235 247.447 286.599 245.302 284.628 243.561C283.748 242.783 282.499 242.424 281.417 241.875ZM455.985 293.81C455.808 293.986 455.51 294.142 455.477 294.341C455.361 295.054 455.188 295.804 455.3 296.498C455.915 300.294 456.687 304.065 457.256 307.867C458.249 314.499 459.909 320.936 463.335 326.741C464.55 328.8 466.522 330.417 468.177 332.211C468.364 332.414 468.732 332.453 469.016 332.568C469.004 332.392 469.01 332.213 468.977 332.041C468.576 329.969 468.418 327.81 467.715 325.844C466.037 321.156 464.101 316.56 462.019 311.679C460.771 308.297 459.451 304.94 458.297 301.527C457.504 299.177 456.944 296.749 456.269 294.359C456.214 294.165 456.082 293.993 455.985 293.81ZM589.621 282.672C589.612 282.899 589.138 283.087 588.918 283.328C588.32 283.984 587.621 284.588 587.175 285.338C582.256 293.593 579.67 302.682 577.669 311.973C577.138 314.438 576.666 316.917 576.166 319.886C576 321.308 575.664 322.736 575.711 324.151C575.765 325.796 575.749 327.639 576.473 329.029C578.503 332.926 583.949 332.815 587.291 330.763C590.383 328.864 591.869 325.802 593.543 322.912C596.398 317.985 598.781 312.781 601.747 307.927C605.78 301.325 609.758 294.748 611.576 287.124C612.123 284.831 610.955 283.267 608.507 283.337C602.745 283.503 597.145 282.368 591.538 281.316C589.652 280.962 589.697 280.865 589.621 282.672ZM310.952 281.639C309.956 285.927 310.594 290.021 311.828 294.067C313.626 299.962 315.587 305.812 314.985 312.112C314.564 316.52 312.584 320.001 308.797 322.434C308.215 322.808 307.954 323.683 307.544 324.326C308.311 324.485 309.084 324.782 309.843 324.753C310.311 324.735 310.817 324.281 311.209 323.917C314.01 321.313 317.15 318.965 319.469 315.98C321.8 312.979 323.306 309.335 325.422 305.724C325.907 303.415 326.48 301.12 326.86 298.794C327.71 293.574 325.097 288.551 320.334 286.777C317.216 285.616 313.801 285.184 312.476 281.397C312.26 280.779 311.453 279.48 310.952 281.639ZM160.105 168.415C166.192 169.137 172.321 170.266 178.161 172.094C184.42 174.054 189.904 177.783 194.342 182.696C200.392 189.393 204.339 197.177 206.093 206.116C206.836 209.901 207.07 213.659 206.998 217.464C206.953 219.879 206.704 222.291 206.521 224.702C206.131 229.859 207.425 234.765 208.705 239.679C210.015 244.712 209.538 249.757 209.076 254.867C208.394 262.419 205.553 269.251 202.471 275.97C200.487 280.295 197.801 284.309 195.297 288.382C193.179 291.828 190.871 295.156 188.523 298.661C185.357 303.646 182.265 308.477 179.293 313.38C177.983 315.542 176.917 317.851 175.734 320.09C175.589 320.364 175.445 320.655 175.233 320.872C174.499 321.623 173.735 322.345 172.982 323.079C172.911 322.008 172.488 320.809 172.824 319.886C175.518 312.505 179.668 305.917 184.169 299.523C189.619 291.781 195.41 284.248 199.274 275.508C201.813 269.766 203.816 263.859 204.523 257.588C204.933 253.956 205.393 250.311 205.476 246.664C205.56 243.043 205.205 239.411 205.02 235.784C205.011 235.605 204.697 235.275 204.68 235.285C204.275 235.517 203.808 235.716 203.517 236.059C201.966 237.886 200.486 239.772 198.934 241.597C194.989 246.234 190.185 249.354 184.123 250.704C178.135 252.038 173.101 250.295 168.846 246.393C163.455 241.447 163.536 235.398 167.246 229.673C170.639 224.435 175.556 221.657 181.881 220.768C188.064 219.898 193.678 221.616 199.291 223.448C201.365 224.125 202.643 224.852 202.742 221.918C202.853 218.595 202.648 215.228 203.123 211.96C203.733 207.757 202.268 204.088 201.083 200.273C198.739 192.724 194.208 186.815 188.147 181.817C183.498 177.982 178.281 175.346 172.592 173.8C166.72 172.205 160.76 171.474 154.513 172.108C144.392 173.135 135.598 177.009 127.607 182.934C121.946 187.131 117.541 192.565 113.638 198.413C113.056 199.284 112.095 199.902 111.313 200.641C110.336 201.564 109.033 201.83 108.335 200.75C107.806 199.931 107.613 198.183 108.131 197.516L109.336 195.963C111.749 192.852 114.211 189.746 117.079 187.099C120.591 183.857 124.617 181.128 128.606 178.453C135.272 173.982 142.576 170.973 150.561 169.751C153.75 169.263 157.021 168.048 160.105 168.415ZM256.012 313.565C255.973 313.881 255.87 314.203 255.906 314.51C256.244 317.362 258.112 319.251 260.226 320.831C260.934 321.36 262.173 321.175 263.169 321.317C262.644 320.508 262.152 319.673 261.581 318.898C261.241 318.437 260.775 318.069 260.366 317.162C259.148 316.109 257.935 315.051 256.709 314.006C256.502 313.829 256.246 313.711 256.012 313.565ZM648.644 136.804C645.978 139.023 643.326 141.269 640.796 143.638C636.644 147.524 634.015 152.496 631.841 157.59C627.269 168.301 623.043 179.159 618.716 189.973C612.34 205.911 606 221.863 599.645 238.306C599.312 238.833 598.884 239.322 598.66 239.892C594.618 250.161 590.615 260.446 586.574 270.715C583.459 278.631 580.154 286.476 577.209 294.452C574.485 301.83 572.722 309.485 571.695 317.289C571.597 318.041 571.852 318.839 571.942 319.615C572.018 318.955 571.991 318.259 572.206 317.647C572.35 317.236 573.01 316.999 573.143 316.589C575.676 308.762 578.001 300.863 580.719 293.1C582.589 287.757 584.939 282.577 587.179 277.368C588.225 274.935 589.159 274.7 591.509 275.863C593.096 276.649 594.712 277.384 596.264 278.235C598.717 279.58 601.315 280.09 604.088 279.844C606.064 279.669 608.535 277.389 608.583 275.266C608.63 273.191 607.708 271.526 605.302 271.307C603.797 271.169 602.258 271.243 600.787 270.957C599.701 270.746 598.699 270.106 597.66 269.658C598.337 269.14 598.967 268.534 599.71 268.138C600.169 267.894 600.801 267.968 601.356 267.904C605.077 267.474 608.233 269.254 611.503 270.527C617.391 272.821 620.71 272.384 623.702 268.456C625.309 266.346 626.387 263.786 627.45 261.321C632.274 250.133 637.395 239.049 641.668 227.652C646.089 215.863 650.208 203.901 653.446 191.747C656.929 178.671 660.746 165.577 661.419 151.912C661.605 148.149 661.282 144.506 660.205 140.79C658.472 134.808 652.825 133.324 648.644 136.804ZM443.925 256.573C443.712 256.982 443.441 257.372 443.295 257.804C441.425 263.346 441.717 268.895 444.306 274.027C447.017 279.399 450.336 284.468 453.42 289.651C453.551 289.871 453.987 289.911 454.281 290.035C454.376 289.635 454.639 289.186 454.539 288.843C453.656 285.817 452.651 282.825 451.825 279.785C451.654 279.158 451.84 278.111 452.278 277.721C452.926 277.144 454.013 276.586 454.796 276.716C457.057 277.094 458.935 279.781 459.158 282.464C459.527 286.895 459.657 291.362 460.326 295.747C461.404 302.801 464.186 309.332 467.276 315.725C467.443 316.071 467.769 316.34 468.022 316.645C468.269 316.251 468.632 315.885 468.742 315.455C469.129 313.95 469.201 312.325 469.804 310.921C471.927 305.974 471.893 301.218 469.294 296.427C467.872 293.805 466.765 291.014 465.267 288.05C464.209 285.007 463.708 281.593 461.966 279.008C459.279 275.022 455.66 271.671 452.593 267.923C449.886 264.615 447.394 261.133 444.806 257.728L443.925 256.573ZM302.132 303.791C302.701 304.765 303.141 305.667 303.863 306.195C306.575 308.178 306.271 313.517 303.601 315.162C303.004 315.53 301.972 315.22 301.141 315.222C301.141 314.547 300.934 313.789 301.174 313.211C302.864 309.145 301.109 305.814 296.681 304.746C295.988 304.579 295.358 304.157 294.699 303.853C295.305 303.481 295.898 303.087 296.52 302.741C297.184 302.373 297.874 302.047 298.554 301.708C301.117 300.43 301.526 300.641 302.132 303.791ZM306.616 282.528C307.018 284.842 306.894 287.342 306.479 289.669C306.155 291.485 301.392 292.483 298.803 292.147C296.067 291.792 294.384 290.159 292.684 288.418C291.203 286.902 289.514 285.71 287.425 286.553C285.303 287.409 285.223 289.516 285.322 291.759C284.727 295.705 283.581 298.896 280.137 301.232C275.576 304.324 270.322 302.059 268.273 298.311C268.041 297.887 267.631 297.56 267.303 297.189C267.055 297.553 266.729 297.886 266.571 298.285C265.34 301.397 264.003 304.477 262.984 307.656C262.348 309.638 263.254 310.539 265.279 310.518C266.633 310.505 267.987 310.493 269.34 310.531C269.695 310.541 270.044 310.736 270.396 310.846C270.2 311.177 270.081 311.69 269.796 311.807C268.519 312.333 267.005 313.388 265.924 313.075C263.085 312.252 260.598 310.698 260.436 307.18C260.172 301.451 263.248 297.128 266.519 292.913C270.244 288.114 275.744 286.419 281.288 284.849C288.252 282.876 295.214 280.895 302.18 278.93C303.631 278.521 306.219 280.243 306.616 282.528ZM279.983 286.985C277.499 287.97 275.043 289.056 272.669 290.278C268.57 292.388 268.14 296.119 271.553 299.077C275.102 302.153 279.658 301.11 280.997 296.714C281.749 294.249 281.91 291.607 282.337 288.551C282.452 286.7 281.286 286.467 279.983 286.985ZM290.276 288.817C290.494 288.904 290.705 289.016 290.931 289.074C294.302 289.934 296.924 295.423 295.322 298.395C295.005 298.982 294.357 299.383 293.862 299.869C293.738 299.385 293.601 298.903 293.494 298.415C293.177 296.97 292.873 295.521 292.447 293.956C291.679 292.377 291.02 290.92 290.38 289.455C290.297 289.264 290.308 289.031 290.276 288.817ZM300.753 280.456C297.957 281.431 295.269 282.71 292.039 283.862C291.956 284.237 291.69 284.693 291.818 284.973C293.428 288.506 299.479 290.997 303.104 289.666C305.242 288.881 306.425 286.171 305.721 283.673C305.232 281.941 302.364 279.893 300.753 280.456ZM557.632 194.897C562.447 195.366 566.29 197.47 569.221 201.614C570.831 203.891 569.607 205.778 569.229 207.69C567.863 214.584 566.215 221.421 564.65 228.273C563.361 233.916 562.049 239.552 560.73 245.188C558.972 252.697 557.207 260.205 555.428 267.709C554.149 273.108 552.853 278.504 551.533 283.893C551.395 284.457 551.044 284.966 550.792 285.501C550.559 284.939 550.084 284.356 550.13 283.819C550.495 279.565 550.864 275.307 551.418 271.076C552.002 266.622 552.714 262.182 553.509 257.763C554.459 252.489 555.456 247.219 556.611 241.989C559.224 230.145 562.6 218.527 566.46 207.037C567.993 202.472 563.636 199.459 560.112 199.538C557.86 199.589 555.916 200.103 553.847 200.609C553.505 200.692 552.967 199.935 552.519 199.318C552.519 198.905 552.467 198.716 552.527 198.579C553.007 197.488 551.266 195.49 553.831 195.251C555.101 195.133 556.388 194.776 557.632 194.897ZM310.641 261.187C313.663 261.233 316.683 261.634 319.701 261.606C324.018 261.564 328.138 262.484 331.994 264.183C335.385 265.677 338.517 267.743 341.888 269.681C345.821 273.183 348.815 277.1 349.966 282.118C350.117 282.777 349.391 283.632 349.071 284.396C348.556 283.936 347.716 283.557 347.573 283.003C344.832 272.381 337.115 267.211 327.038 264.618C321.533 263.201 315.963 263.55 310.375 264.049C309.651 264.113 308.03 265.07 307.969 263.163C307.913 261.41 309.395 261.168 310.641 261.187ZM454.279 112.333C444.464 113.726 437.204 119.359 431.703 127.446C425.707 136.26 423.701 146.277 423.438 156.571C423.25 163.921 424.129 171.319 424.86 178.663C425.407 184.149 426.183 189.65 427.389 195.026C428.908 201.802 431.001 208.45 432.789 215.168C435.778 226.401 439.541 237.371 444.312 247.971C449.397 259.27 456.083 269.506 465.477 277.783C468.51 280.455 472.025 282.386 476.114 282.792C481.206 283.298 486.152 282.338 491.021 280.849C501.439 277.661 511.965 274.798 522.278 271.308C531.695 268.122 537.561 261.288 539.652 251.584C541.221 244.308 542.544 236.968 543.64 229.606C544.574 223.343 545.331 217.021 545.595 210.701C545.797 205.868 545.165 200.993 544.797 196.145C544.517 192.45 544.069 188.768 543.696 184.582C542.481 177.228 540.279 170.189 537.379 163.307C532.972 152.85 526.901 143.649 518.693 135.71C509.746 127.055 499.052 121.549 487.424 117.763C480.861 115.626 474.068 114.053 467.271 112.814C463.039 112.043 458.513 111.732 454.279 112.333ZM162.008 179.633C161.716 180.089 161.457 180.57 161.128 180.998C155.021 188.94 148.555 196.634 142.884 204.875C136.192 214.599 130.6 225.014 126.259 236.227C124.569 239.741 123.021 243.141 121.427 246.519C120.583 248.307 118.827 248.083 117.631 247.507C116.336 246.883 116.496 245.562 117.271 244.174C123.663 232.734 129.798 221.148 136.337 209.795C140.349 202.832 144.682 196.019 149.363 189.492C151.868 186 155.399 183.243 158.51 180.197C158.923 179.793 159.568 179.507 160.144 179.42C160.741 179.33 161.385 179.549 162.008 179.633ZM178.394 225.295C171.546 227.111 168.143 232.124 168.736 238.716C169.11 242.871 170.754 245.53 174.692 246.651C179.207 247.935 183.714 247.346 187.965 245.637C194.064 243.185 199.052 239.477 200.565 232.036C200.724 230.031 200.147 228.566 198.36 227.26C192.031 222.633 185.35 223.45 178.394 225.295ZM321.142 94.7827C320.975 94.9899 320.808 95.0728 320.641 95.28C320.106 95.5215 319.443 95.4764 319.055 95.7794C309.374 103.343 303.301 113.225 300.111 124.966C298.595 130.541 297.908 136.228 298.16 141.963C298.602 152.057 301.77 161.282 307.511 169.677C313.783 178.849 322.116 185.599 332.065 190.334C337.767 193.048 343.819 195.002 350.229 195.343C353.113 195.497 356.065 195.022 358.894 195.443C364.33 196.252 369.388 194.789 374.409 193.329C384.52 190.387 393.418 185.306 401.041 177.963C406.664 172.545 411.528 166.655 414.739 159.51C414.802 159.369 414.881 159.236 414.952 159.1C415.048 159.285 415.246 159.483 415.224 159.653C414.745 163.28 414.977 166.953 412.398 170.19C404.414 180.21 395.154 188.651 383.157 193.553C378.025 195.65 372.545 196.997 367.125 198.273C363.865 199.041 360.406 199.367 357.053 199.279C348.569 199.056 340.385 197.266 332.554 193.896C324.193 190.298 316.871 185.245 310.633 178.683C303.378 171.051 298.314 162.167 296.174 151.839C295.322 147.725 294.644 143.472 294.702 139.294C294.882 126.241 298.72 114.207 306.32 103.522C308.392 100.611 311.177 98.1914 313.704 95.6136C314.895 94.3988 320.185 93.8129 321.142 94.7827ZM331.809 94.9087C331.935 94.9233 332.045 95.0769 332.162 95.1657C331.945 95.2428 331.732 95.3288 331.512 95.3958C322.993 97.9966 316.925 103.589 312.871 111.333C310.387 116.079 309.041 121.236 308.282 126.615C306.741 137.549 309.265 147.616 314.514 156.998C320.999 168.589 330.17 177.411 342.865 181.978C346.913 183.434 351.098 184.997 355.322 185.379C365.464 186.296 375.206 184.478 384.236 179.395C390.967 175.607 396.499 170.537 401.46 164.651C407.214 157.824 410.486 149.868 412.521 141.364C413.234 138.383 412.928 135.158 413.115 132.047C413.15 131.464 413.312 130.889 413.416 130.31C414.098 130.662 415.15 130.847 415.395 131.396C416.269 133.35 417.618 135.506 417.417 137.442C417.003 141.423 416.005 145.414 414.711 149.218C411.355 159.09 405.424 167.326 397.728 174.26C390.566 180.711 382.311 185.218 372.916 187.48C369.735 188.246 366.517 189.126 363.28 189.312C360.282 189.485 357.209 188.961 354.217 188.457C350.231 187.785 346.159 187.226 342.356 185.932C331.852 182.359 323.041 176.289 315.937 167.584C310.261 160.629 306.983 152.728 305.41 144.063C303.56 133.867 305.218 123.988 308.99 114.451C311.543 107.997 315.264 102.278 320.364 97.5113C320.75 97.1506 320.963 96.604 321.257 95.8949C321.422 95.563 321.588 95.48 321.753 95.3971C325.022 93.5316 328.431 94.5159 331.809 94.9087ZM706.189 183.82C709.606 183.856 713.015 184.321 716.431 184.589C720.587 184.914 724.741 185.324 728.905 185.484C732.888 185.638 736.888 185.42 740.872 185.559C742.836 185.628 744.837 185.975 746.703 186.53C747.339 186.719 747.616 187.931 748.056 188.675C747.45 188.855 746.855 189.086 746.234 189.202C745.514 189.337 744.772 189.37 743.913 189.331C735.628 189.061 727.469 188.847 719.308 188.783C716.003 188.757 712.694 189.183 709.389 189.164C707.769 189.155 706.145 188.625 704.535 188.284C702.856 187.927 702.354 186.535 702.98 185.517C703.517 184.643 705.087 183.808 706.189 183.82ZM356.407 101.799C358.275 110.705 360.004 119.641 361.836 128.555C362.776 133.132 361.659 135.031 357.724 137.253C352.524 140.189 347.494 143.459 342.524 146.795C340.034 148.465 337.992 149.047 336.629 147.727C335.341 146.48 335.13 145.383 336.848 144.213C342.223 140.554 347.623 136.92 352.82 133.007C353.952 132.155 354.97 130.121 354.854 128.736C354.428 123.679 353.527 118.663 352.748 113.64C352.423 111.545 351.956 109.472 351.554 107.138C351.362 105.079 350.811 103.205 351.109 101.487C351.296 100.409 352.653 98.9385 353.676 98.7541C355.49 98.4269 356.103 100.349 356.407 101.799ZM699.051 80.99C699.354 81.3068 699.521 82.1697 699.307 82.4847C698.283 83.9953 697.107 85.4043 695.86 86.9738C691.837 92.4584 687.989 97.8555 683.982 103.134C683.457 103.825 681.76 104.484 681.224 104.157C679.864 103.328 681.089 102.443 681.654 101.502C685.398 95.2625 689.023 88.9516 692.734 82.6921C694.443 79.8098 697.222 79.078 699.051 80.99ZM584.928 0.353781C585.584 0.408666 586.32 1.1999 586.762 1.85259C588.384 4.24721 587.532 6.93895 587.209 9.42672C586.645 13.7674 585.625 18.046 584.831 22.3571C584.459 24.3705 584.168 26.3991 583.84 28.6702C583.185 32.0491 582.473 35.1677 581.887 38.3107C580.825 44.0198 579.875 49.7506 578.808 55.4587C577.917 60.2205 576.954 64.969 575.971 69.7123C574.358 77.5 572.755 85.2909 571.029 93.0532C570.556 95.1828 568.897 95.9806 567.537 94.9616C567.078 94.6178 566.62 93.7372 566.73 93.2272C569.274 81.3537 572 69.5199 574.469 57.6306C576.284 48.8894 577.582 40.0357 579.475 31.3136C581.278 23.0043 582.206 14.674 581.94 6.17093C581.894 4.70016 582.584 3.14681 583.182 1.74071C583.453 1.10372 584.368 0.306922 584.928 0.353781ZM450.154 59.3196C450.633 60.1284 451.124 60.9293 451.61 61.9879C452.419 66.2896 453.254 70.3318 454.027 74.3868C454.417 76.4307 454.717 78.4945 455.009 80.5569C455.081 81.0692 454.966 81.6107 454.937 82.1388C454.223 82.0191 453.071 82.1406 452.869 81.7391C451.83 79.6708 450.894 77.517 450.19 75.2998C449.383 72.76 449.046 70.0471 448.136 67.557C447.638 66.1943 446.282 65.2017 445.493 63.9209C444.81 62.8131 444.008 61.5449 443.975 60.3267C443.954 59.5448 445.124 58.2313 445.953 58.0311C447.403 57.6809 449.127 57.5839 450.154 59.3196Z" fill="#00160A"/>
<path d="M284.766 307.531C287.715 306.74 289.85 305.144 289.534 303.965C289.218 302.785 286.571 302.47 283.622 303.26C280.673 304.051 278.538 305.647 278.854 306.826C279.17 308.006 281.817 308.321 284.766 307.531Z" fill="black"/>
<path fill-rule="evenodd" clip-rule="evenodd" d="M305.066 297.943C307.172 297.153 308.385 295.557 307.951 294.378C307.544 293.199 305.986 292.883 304.297 293.673C302.443 294.463 300.79 296.059 300.78 297.238C300.797 298.417 302.794 298.733 305.066 297.943Z" fill="black"/>
</svg>
