<svg width="538" height="476" viewBox="0 0 538 476" fill="none" xmlns="http://www.w3.org/2000/svg">
<path fill-rule="evenodd" clip-rule="evenodd" d="M52.6485 437.454C88.6834 476.679 228.032 454.148 319.787 454.148C359.371 454.148 492.207 473.987 437.353 337.739C257.496 -108.992 -61.5285 313.169 52.6485 437.454Z" fill="#E71096" fill-opacity="0.7"/>
<path fill-rule="evenodd" clip-rule="evenodd" d="M212.087 440.61C212.262 440.475 212.446 440.33 212.522 440.122C212.766 439.458 211.807 439.016 211.099 439.032C210.072 439.056 208.755 439.747 209.069 440.726C209.251 441.292 209.948 441.554 210.534 441.45C211.119 441.345 211.615 440.972 212.087 440.61ZM219.046 429.139C220.021 429.445 220.983 429.823 221.831 430.391C223.425 431.458 224.509 433.114 225.549 434.725C226.295 435.88 227.051 437.057 227.423 438.381C227.827 439.814 227.755 441.344 227.485 442.808C226.643 447.369 223.829 451.531 219.908 454.01C215.988 456.489 211.021 457.247 206.54 456.052C205.668 455.819 204.789 455.501 204.118 454.897C203.555 454.39 203.175 453.714 202.827 453.039C201.001 449.5 199.771 445.569 199.912 441.589C200.052 437.61 201.688 433.583 204.787 431.082C208.675 427.943 214.278 427.643 219.046 429.139" fill="white"/>
<path fill-rule="evenodd" clip-rule="evenodd" d="M378.957 256.636C377.256 256.615 375.661 258.041 375.493 259.733C375.424 260.425 375.717 261.285 376.406 261.38C376.922 261.452 377.374 261.053 377.721 260.664C378.455 259.842 379.085 258.928 379.592 257.95C379.762 257.621 379.912 257.2 379.688 256.906C379.525 256.691 379.226 256.64 378.957 256.636ZM380.936 249.173C383.97 250.231 386.72 252.093 388.83 254.517C390.643 256.601 392.024 259.305 391.643 262.04C391.503 263.045 391.132 264.002 390.71 264.924C389.109 268.414 386.357 271.76 382.577 272.436C380.594 272.79 378.55 272.365 376.643 271.716C374.437 270.966 372.334 269.914 370.412 268.598C369.392 267.9 368.379 267.071 367.932 265.919C367.624 265.125 367.615 264.251 367.626 263.399C367.655 261.293 367.794 259.151 368.529 257.177C369.458 254.679 371.276 252.617 373.203 250.777C373.979 250.037 374.801 249.308 375.796 248.911C377.425 248.262 379.281 248.595 380.936 249.173Z" fill="white"/>
<path fill-rule="evenodd" clip-rule="evenodd" d="M378.959 128.089C388.952 138.394 396.839 150.717 402.002 164.091C402.357 165.009 402.701 166.03 402.362 166.954C399.758 174.073 394.731 180.008 389.802 185.779C386.653 189.467 383.503 193.154 380.353 196.842C377.347 200.362 374.34 203.883 371.231 207.315C355.406 224.788 336.706 240.067 315.049 249.468C314.232 249.823 313.355 250.177 312.475 250.035C311.595 249.893 310.77 249.042 311 248.184C313.678 238.213 316.372 227.788 314.224 217.691C313.706 215.255 313.128 212.188 315.148 210.723C331.505 198.857 343.281 181.896 354.567 165.166C357.405 160.959 360.236 156.741 362.747 152.333C367.206 144.507 370.639 136.102 372.934 127.398C373.249 126.204 374.763 125.666 375.962 125.979C377.161 126.292 378.098 127.201 378.959 128.089" fill="white"/>
<path fill-rule="evenodd" clip-rule="evenodd" d="M67.3202 168.124C68.9448 182.812 73.4667 197.173 80.5498 210.142C84.9355 218.172 90.2699 225.638 95.5901 233.081C99.2922 238.261 103.251 243.659 109.028 246.336C110.564 247.048 110.349 249.262 109.937 250.904C108.155 258.001 107.324 265.335 107.472 272.651C107.486 273.342 107.504 274.059 107.233 274.694C106.311 276.852 103.153 276.493 100.978 275.61C87.5247 270.149 77.1958 259.166 67.547 248.316C55.0195 234.229 42.6784 219.523 35.2778 202.185C34.7747 201.006 34.2864 199.765 34.3706 198.487C34.4564 197.184 35.1258 195.999 35.8049 194.884C42.5137 183.865 51.847 174.455 62.8113 167.658C63.5835 167.179 64.4081 166.699 65.3162 166.667C66.2243 166.636 67.2203 167.221 67.3202 168.124Z" fill="white"/>
<path fill-rule="evenodd" clip-rule="evenodd" d="M376.998 425.783C378.157 423.818 379.594 421.655 381.845 421.282C382.732 421.135 383.2 420.171 383.502 419.324C387.222 408.889 387.581 397.284 384.512 386.64C383.636 383.601 384.714 380.38 385.782 377.403C388.535 369.721 391.289 362.04 394.043 354.358C392.465 351.629 388.305 351.709 386.174 349.387C383.431 346.398 385.5 341.646 387.648 338.205C400.2 318.104 412.752 298.003 425.303 277.901C426.841 275.439 430.216 274.667 433.044 275.323C435.872 275.979 438.288 277.759 440.614 279.497C449.768 286.334 458.922 293.171 468.077 300.009C472.99 303.679 478.414 308.366 478.131 314.492C477.974 317.882 476.034 320.895 474.158 323.722C466.903 334.655 459.648 345.587 452.393 356.519C448.306 362.678 449.435 370.767 448.199 378.055C446.248 389.57 438.351 399.026 431.039 408.134C423.727 417.241 416.411 427.41 416 439.082C415.51 452.994 408.901 466.58 398.259 475.554C401.346 468.065 381.845 471.052 359.537 462.177C363.208 449.19 370.139 437.404 376.998 425.783Z" fill="white"/>
<path fill-rule="evenodd" clip-rule="evenodd" d="M132.048 458.351C130.657 457.213 130.214 455.292 129.968 453.507C127.127 432.851 139.328 412.463 137.154 391.726C136.035 381.039 131.124 371.067 124.945 362.297C120.678 356.241 120.439 348.128 122.031 340.882C123.623 333.635 126.834 326.86 129 319.765C138.632 288.217 126.912 254.514 115.324 223.637C138.415 212.471 165.36 214.633 190.94 216.146C216.521 217.659 244.032 217.766 265.352 203.48C268.274 234.385 261.831 265.323 255.424 295.692C287.934 292.525 320.443 289.358 352.953 286.191C353.886 286.1 354.905 286.03 355.68 286.559C356.713 287.265 356.872 288.706 356.931 289.96C358.451 322.1 359.372 354.268 359.694 386.443C359.702 387.25 359.674 388.149 359.108 388.722C358.624 389.212 357.884 389.314 357.201 389.39C311.654 394.466 266.106 399.542 220.559 404.618C216.621 405.056 211.01 404.031 211.241 400.055C212.269 382.327 211.669 364.503 209.45 346.886C197.345 346.428 185.158 348.274 173.726 352.297C171.132 353.209 168.013 355.663 169.412 358.04C178.667 373.768 167.18 397.407 179.75 410.609C184.072 415.148 183.773 422.289 182.916 428.512C181.08 441.852 177.961 455.013 173.617 467.752C175.717 453.089 133.332 466.214 132.048 458.351Z" fill="white"/>
<path fill-rule="evenodd" clip-rule="evenodd" d="M1.77115 125.493C1.81006 125.806 1.64065 126.135 1.36309 126.285C1.14204 126.064 0.920998 125.843 0.699951 125.622C1.03133 125.477 1.40715 125.435 1.7621 125.505L1.77115 125.493Z" fill="#00160A"/>
<path fill-rule="evenodd" clip-rule="evenodd" d="M214.345 428.962C215.12 429.205 215.886 429.506 216.562 429.958C217.83 430.807 218.693 432.126 219.521 433.408C220.115 434.327 220.717 435.264 221.013 436.318C221.334 437.459 221.277 438.677 221.062 439.842C220.392 443.473 218.151 446.786 215.031 448.759C211.911 450.732 207.957 451.336 204.39 450.384C203.695 450.199 202.996 449.946 202.462 449.465C202.013 449.061 201.711 448.523 201.434 447.986C199.981 445.169 199.002 442.04 199.113 438.872C199.225 435.704 200.528 432.499 202.994 430.508C206.089 428.009 210.549 427.771 214.345 428.962M209.995 447.822C211.935 447.527 213.643 446.26 214.758 444.645C215.873 443.03 216.445 441.094 216.72 439.15C216.877 438.041 216.891 436.769 216.108 435.968C215.639 435.488 214.969 435.274 214.326 435.081C211.914 434.36 209.16 433.746 207 435.039C205.426 435.98 204.549 437.725 203.754 439.377C202.823 441.312 203.053 443.754 204.329 445.481C205.605 447.208 207.872 448.144 209.995 447.822V447.822Z" fill="#00160A"/>
<path fill-rule="evenodd" clip-rule="evenodd" d="M302.972 341.815C303.006 341.403 303.056 340.962 303.328 340.651C303.594 340.348 304.014 340.239 304.407 340.147C314.543 337.787 325.013 336.864 335.406 337.414C336.729 337.484 338.431 337.932 338.519 339.254C339.021 346.837 339.523 354.419 340.025 362.002C340.05 362.385 340.063 362.811 339.818 363.107C339.618 363.348 339.295 363.441 338.992 363.52C328.182 366.338 316.788 366.894 305.756 365.141C305.472 365.096 305.173 365.042 304.952 364.858C304.686 364.635 304.592 364.271 304.516 363.932C302.89 356.694 302.367 349.209 302.972 341.815ZM305.362 354.394C305.561 357.257 306.162 360.092 307.141 362.79C308.118 362.931 309.084 363.134 310.057 363.298C318.441 364.718 327.015 363.29 335.398 361.863C335.993 361.762 336.645 361.628 337.012 361.149C337.388 360.66 337.338 359.979 337.27 359.366C336.981 356.753 336.692 354.14 336.404 351.528C336.38 351.317 336.351 351.091 336.208 350.934C336.035 350.744 335.752 350.713 335.495 350.696C329.538 350.304 323.561 350.749 317.608 351.193C314.317 351.438 311.027 351.684 307.736 351.93C306.962 351.987 306.084 352.102 305.639 352.737C305.312 353.205 305.323 353.824 305.362 354.394ZM305.455 343.465C304.934 345.135 304.841 346.937 305.186 348.651C305.248 348.96 305.335 349.285 305.569 349.495C305.916 349.806 306.444 349.754 306.905 349.687C312.512 348.866 318.179 348.458 323.845 348.467C324.644 348.469 324.889 347.392 324.881 346.593C324.868 345.422 324.855 344.251 324.842 343.08C324.835 342.402 324.801 341.656 324.337 341.162C323.779 340.568 322.848 340.586 322.036 340.648C320.159 340.792 318.281 340.935 316.404 341.079C315.506 341.147 313.125 341.757 312.03 341.829C310.124 342.133 308.219 342.437 306.313 342.741C306.11 342.774 305.895 342.811 305.739 342.945C305.586 343.075 305.515 343.274 305.455 343.465ZM330.59 348.56C332.08 348.579 333.571 348.43 335.028 348.117C335.375 348.042 335.739 347.947 335.986 347.693C336.35 347.32 336.346 346.734 336.32 346.214C336.243 344.704 336.166 343.194 336.088 341.684C336.061 341.146 336 340.539 335.579 340.202C335.209 339.906 334.686 339.923 334.213 339.956C332.556 340.068 330.9 340.181 329.243 340.294C328.981 340.312 328.705 340.334 328.486 340.479C328.085 340.744 328.025 341.299 328.014 341.78C327.977 343.38 328.042 344.983 328.209 346.575C328.258 347.036 328.325 347.522 328.61 347.887C329.054 348.456 329.868 348.551 330.59 348.56Z" fill="#868686"/>
<path fill-rule="evenodd" clip-rule="evenodd" d="M328.914 308.679C331.128 307.721 333.845 308.042 335.775 309.489C337.705 310.937 338.774 313.456 338.473 315.85C339.83 315.117 341.551 314.394 342.817 315.275C344.246 316.27 343.92 318.412 343.705 320.14C343.33 323.16 343.817 326.282 345.093 329.044C345.62 330.185 346.073 331.916 344.904 332.377C344.706 332.454 344.491 332.472 344.279 332.489C330.564 333.595 316.85 334.7 303.135 335.805C302.759 335.836 302.337 335.852 302.053 335.604C301.763 335.351 301.726 334.921 301.71 334.536C301.579 331.31 301.447 328.084 301.316 324.858C301.281 323.993 301.264 323.06 301.753 322.345C302.561 321.162 304.256 321.165 305.671 320.939C307.086 320.712 308.733 319.518 308.188 318.192C307.581 316.714 309.65 315.634 311.23 315.394C312.81 315.153 314.905 314.212 314.427 312.687C313.904 311.022 316.196 309.988 317.926 309.758C319.147 309.596 320.424 309.439 321.582 309.858C322.74 310.277 323.719 311.47 323.458 312.673C323.159 314.051 324.838 315.335 326.161 314.848C327.484 314.362 328.021 312.553 327.351 311.312C326.804 310.299 327.857 309.136 328.914 308.679ZM335.996 329.938C335.483 328.987 335.48 327.854 335.475 326.774C335.453 321.7 335.141 316.627 334.542 311.589C334.512 311.334 334.463 311.05 334.255 310.901C334.076 310.773 333.834 310.788 333.615 310.808C332.543 310.909 331.274 311.145 330.85 312.135C330.67 312.557 330.691 313.034 330.715 313.492C330.987 318.578 331.259 323.663 331.53 328.748C331.556 329.222 331.619 329.766 332.012 330.03C332.227 330.174 332.497 330.201 332.755 330.215C333.841 330.275 334.936 330.181 335.996 329.938ZM317.55 322.118C317.417 322.966 317.23 323.807 317.18 324.663C317.097 326.094 317.398 327.516 317.698 328.917C317.89 329.816 319.052 330.258 319.903 329.912C320.754 329.565 321.268 328.657 321.41 327.749C321.551 326.841 321.385 325.917 321.241 325.01C320.672 321.445 320.426 317.828 320.506 314.219C320.527 313.306 319.636 312.481 318.727 312.571C317.818 312.661 317.106 313.645 317.306 314.536C317.86 317.019 317.944 319.606 317.55 322.118ZM326.57 317.248C326.035 316.548 324.809 316.921 324.392 317.697C323.975 318.473 324.102 319.414 324.206 320.289C324.476 322.575 324.502 324.889 324.283 327.179C324.218 327.855 324.146 328.592 324.519 329.159C325.093 330.03 326.351 330.023 327.389 329.917C327.715 329.884 328.089 329.821 328.253 329.538C328.366 329.341 328.34 329.096 328.309 328.87C327.83 325.316 327.352 321.762 326.873 318.208C326.828 317.872 326.776 317.518 326.57 317.248ZM338.449 318.776C338.046 319.325 337.962 320.04 337.927 320.72C337.807 323.053 338.116 325.384 338.424 327.7C338.546 328.612 338.963 329.785 339.881 329.722C340.812 329.659 341.055 328.415 341.033 327.482C340.976 325.012 340.918 322.543 340.861 320.073C340.846 319.424 340.778 318.671 340.239 318.309C339.673 317.929 338.852 318.226 338.449 318.776ZM310.337 318.192C310.337 318.192 310.746 321.415 310.889 323.058C311.068 325.119 311.296 327.177 311.572 329.228C311.613 329.525 311.666 329.848 311.886 330.053C312.267 330.408 313.736 330.172 314.007 329.727C314.278 329.282 314.263 328.726 314.239 328.206C314.165 326.56 314.09 324.913 314.015 323.267C313.935 321.502 313.516 317.697 313.516 317.697M305.007 329.863C305.124 330.232 305.263 330.619 305.562 330.866C306.144 331.348 307.089 331.049 307.548 330.449C308.008 329.848 308.111 329.057 308.199 328.306C308.307 327.384 308.411 326.426 308.112 325.548C307.814 324.669 306.988 323.896 306.064 323.978C305.214 324.053 304.555 324.83 304.357 325.66C304.159 326.49 304.326 327.36 304.532 328.188C304.672 328.751 304.831 329.31 305.007 329.863Z" fill="#E7EAEE"/>
<path fill-rule="evenodd" clip-rule="evenodd" d="M363.513 200.975C362.122 203.063 360.613 205.178 358.461 206.467C356.308 207.756 353.337 208.008 351.403 206.409C349.269 204.646 349.137 201.467 349.306 198.704C349.371 197.64 349.456 196.568 349.761 195.547C350.289 193.775 351.444 192.264 352.649 190.862C354.111 189.162 355.73 187.522 357.758 186.565C359.786 185.608 362.306 185.44 364.207 186.63C366.481 188.056 367.323 191.087 366.892 193.736C366.461 196.386 365.001 198.741 363.513 200.975M359.095 203.184C360.849 201.315 362.353 199.213 363.556 196.95C364.347 195.46 365.02 193.842 364.989 192.155C364.957 190.469 364.068 188.707 362.502 188.081C360.462 187.266 358.223 188.57 356.518 189.955C355.304 190.941 354.129 192.023 353.351 193.379C352.858 194.237 352.538 195.18 352.222 196.117C351.622 197.889 351.014 199.735 351.243 201.592C351.471 203.448 352.799 205.312 354.66 205.505C356.382 205.683 357.91 204.446 359.095 203.184Z" fill="#868686"/>
<path fill-rule="evenodd" clip-rule="evenodd" d="M78.487 217.536C80.6662 219.744 82.4651 222.325 83.781 225.134C85.1035 227.957 83.7701 231.585 81.1747 233.312C78.5794 235.039 75.0703 235.017 72.2245 233.744C69.3787 232.471 67.1423 230.096 65.4952 227.449C64.2535 225.454 63.2907 223.217 63.1875 220.869C63.0842 218.521 63.9487 216.05 65.8062 214.61C67.6849 213.154 70.3266 212.946 72.5986 213.645C74.8706 214.344 76.817 215.845 78.487 217.536M69.9842 216.194C68.0986 216 66.4236 217.73 66.1001 219.598C65.7767 221.466 66.4887 223.361 67.41 225.018C69.4078 228.61 72.9725 231.801 77.0781 231.602C79.1887 231.5 81.502 230.038 81.4645 227.925C81.4483 227.012 80.9976 226.169 80.5475 225.374C79.3517 223.261 78.0601 221.17 76.3351 219.463C74.6102 217.755 72.3988 216.442 69.9842 216.194Z" fill="#868686"/>
<path fill-rule="evenodd" clip-rule="evenodd" d="M206.524 437.865C207.729 436.949 209.228 436.357 210.738 436.454C212.248 436.551 213.743 437.418 214.374 438.793C215.052 440.269 214.63 442.102 213.572 443.335C212.514 444.567 210.92 445.248 209.312 445.472C208.214 445.626 206.906 445.488 206.305 444.557C206.015 444.107 205.949 443.554 205.891 443.022C205.786 442.068 205.681 441.114 205.576 440.159C205.532 439.755 205.489 439.335 205.619 438.95C205.772 438.497 206.143 438.154 206.524 437.865M211.291 440.61C211.466 440.475 211.65 440.329 211.726 440.122C211.97 439.458 211.011 439.016 210.303 439.032C209.276 439.055 207.959 439.747 208.273 440.726C208.455 441.292 209.152 441.554 209.738 441.449C210.323 441.345 210.819 440.972 211.291 440.61H211.291Z" fill="#00160A"/>
<path fill-rule="evenodd" clip-rule="evenodd" d="M393.572 133.271C405.366 145.48 414.675 160.08 420.769 175.924C421.187 177.012 421.593 178.221 421.194 179.316C418.12 187.75 412.187 194.782 406.369 201.619L395.218 214.726C391.669 218.896 388.12 223.068 384.451 227.134C365.773 247.835 343.703 265.937 318.141 277.074C317.177 277.495 316.142 277.914 315.103 277.746C314.064 277.578 313.091 276.569 313.363 275.553C316.523 263.74 319.703 251.389 317.168 239.426C316.556 236.54 315.874 232.907 318.258 231.171C337.564 217.113 351.463 197.019 364.783 177.198C368.133 172.214 371.473 167.216 374.437 161.994C379.7 152.722 383.753 142.764 386.461 132.452C386.833 131.037 388.619 130.4 390.034 130.771C391.45 131.142 392.555 132.219 393.572 133.271ZM385.318 148.433C384.119 147.937 383.014 149.278 382.403 150.422C381.743 151.66 381.083 152.9 380.422 154.14L380.421 154.143C368.201 177.096 355.794 200.402 337.172 218.48C335.413 220.189 333.446 222.252 333.77 224.683C334.81 232.474 330.65 240.702 323.759 244.485C320.631 246.203 320.668 250.634 321.126 254.173C321.31 255.59 321.845 257.366 323.269 257.486C327.445 257.838 331.452 259.894 334.174 263.08C335.033 264.085 336.661 263.457 337.78 262.753C365.951 245.043 387.597 218.883 408.731 193.181C409.46 192.294 410.236 191.177 409.856 190.094C406.658 180.984 407.17 170.63 411.253 161.88C408.844 157.087 405.973 152.526 402.693 148.282C397.235 150.651 390.816 150.707 385.318 148.433ZM318.498 272.396C319.609 272.978 320.954 272.424 322.066 271.844C324.988 270.319 327.802 268.588 330.481 266.668C331.189 266.16 331.4 265.147 331.15 264.313C330.9 263.478 330.273 262.806 329.579 262.279C327.413 260.635 324.385 260.203 321.845 261.175C321.376 261.354 320.91 261.589 320.587 261.973C320.208 262.423 320.07 263.023 319.948 263.598C319.334 266.507 318.85 269.444 318.498 272.396ZM397.61 142.366C395.696 138.624 392.744 135.419 389.171 133.204C387.928 134.299 387.686 135.964 387.44 137.661C387.271 138.826 387.1 140.006 386.601 141.028C386.439 141.36 386.241 141.678 386.043 141.995L386.043 141.996L386.042 141.996L386.042 141.996C385.665 142.601 385.29 143.203 385.168 143.897C384.984 144.957 385.88 146.285 386.897 145.935C387.723 145.65 388.589 145.833 389.463 146.017C389.924 146.115 390.387 146.213 390.847 146.242C393.53 146.416 395.756 144.314 397.61 142.366ZM412.781 164.799C410.731 168.878 411.055 173.695 411.428 178.245L411.963 184.771C412.022 185.488 412.412 186.457 413.104 186.258C413.533 185.056 414.351 184.064 415.172 183.07C415.889 182.2 416.608 181.329 417.07 180.313C418.636 176.871 416.898 172.905 415.186 169.534L412.781 164.799ZM320.99 237.222C321.076 238.499 322.402 239.454 323.68 239.418C324.959 239.382 326.11 238.555 326.857 237.516C327.605 236.478 328.014 235.241 328.414 234.026L329.732 230.013C330.1 228.894 330.122 227.183 328.952 227.052C328.53 227.004 328.126 227.228 327.78 227.474C326.468 228.406 325.513 229.746 324.583 231.059L322.05 234.638C321.501 235.414 320.927 236.274 320.99 237.222ZM90.7951 218.1C81.8967 201.808 76.216 183.766 74.1749 165.314C74.0494 164.179 72.7983 163.444 71.6574 163.484C70.5166 163.523 69.4807 164.126 68.5105 164.728C54.7362 173.268 43.0111 185.088 34.5829 198.931C33.7298 200.333 32.8887 201.821 32.781 203.458C32.6753 205.064 33.2887 206.623 33.9207 208.103C43.2179 229.885 58.7218 248.36 74.4599 266.057C86.5815 279.688 99.5575 293.486 116.459 300.347C119.19 301.456 123.158 301.907 124.316 299.196C124.653 298.407 124.635 297.52 124.618 296.662L124.617 296.629C124.431 287.439 125.475 278.224 127.714 269.308C128.232 267.246 128.501 264.464 126.571 263.57C119.314 260.207 114.341 253.425 109.69 246.918C103.006 237.567 96.3047 228.188 90.7951 218.1ZM106.504 289.318C105.504 289.584 104.506 288.954 103.671 288.342C88.2888 277.072 76.3681 261.818 64.6558 246.769L43.9867 220.212C47.4755 217.99 47.9185 213.162 47.9945 209.026C48.0934 203.65 48.1656 198.116 46.2236 193.102C45.792 191.988 46.3539 190.753 46.9557 189.72C49.5364 185.292 53.1155 181.449 57.3494 178.561C57.7593 178.281 58.1932 178.004 58.6845 177.934C59.9811 177.751 60.9758 179.012 61.6687 180.123C64.4052 184.511 68.1661 189.474 73.3251 189.113C75.2895 188.975 76.3788 191.289 76.9519 193.173C84.0781 216.601 97.458 237.732 113.149 256.532C115.188 258.975 115.699 262.273 116.206 265.54C116.771 269.183 117.331 272.79 119.996 275.132C122.272 277.133 121.85 280.725 121.236 283.692C121.11 284.299 120.96 284.949 120.499 285.363C120.157 285.671 119.694 285.799 119.249 285.918L106.504 289.318ZM70.0368 183.686C67.215 181.714 64.7775 179.195 62.9002 176.309C62.4942 175.685 62.0997 174.985 62.1711 174.244C62.2486 173.438 62.8549 172.793 63.4583 172.253C64.9481 170.92 66.632 169.804 68.4402 168.951C69.1024 168.638 69.9574 168.385 70.5075 168.868C70.8314 169.152 70.9337 169.607 71.0182 170.029L73.6245 183.065C73.7786 183.835 72.9703 184.529 72.1848 184.552C71.3992 184.574 70.681 184.136 70.0368 183.686ZM44.2445 208.898C44.1892 211.35 44.0019 214.101 42.1645 215.726C41.7799 215.771 41.5245 215.349 41.3738 214.993C40.0499 211.859 38.7077 208.649 38.4992 205.254C38.2908 201.858 39.4288 198.181 42.2036 196.212C42.5791 195.946 43.1298 195.726 43.4613 196.046C43.5945 196.174 43.6514 196.36 43.7 196.539C44.454 199.311 44.3947 202.23 44.33 205.101L44.2445 208.898ZM119.125 290.453C119.571 290.818 119.618 291.47 119.63 292.046L119.763 298.348C117.177 296.915 114.701 295.286 112.36 293.48C111.917 293.138 111.429 292.583 111.701 292.093C111.836 291.85 112.116 291.733 112.377 291.637C114.049 291.02 115.779 290.557 117.536 290.256C118.08 290.163 118.698 290.104 119.125 290.453ZM119.274 265.629C119.25 265.344 119.25 265.034 119.419 264.804C119.866 264.197 120.835 264.747 121.244 265.379C122.23 266.902 122.448 268.897 121.814 270.597C120.365 269.355 119.432 267.53 119.274 265.629ZM408.148 206.7C410.199 204.117 413.938 203.745 417.235 203.826C418.006 203.844 418.799 203.882 419.5 204.201C421.451 205.09 421.865 207.639 421.931 209.782C421.991 211.732 421.98 213.707 421.506 215.599C421.032 217.492 420.052 219.315 418.485 220.476C417.78 220.998 416.963 221.378 416.098 221.523C414.762 221.747 413.394 221.403 412.125 220.931C410.432 220.301 408.827 219.436 407.371 218.369C406.659 217.848 405.924 217.165 405.901 216.283C405.848 214.249 406.076 212.209 406.576 210.237C406.895 208.977 407.34 207.718 408.148 206.7ZM413.467 219.565C416.1 220.321 418.902 218.283 419.899 215.732C420.897 213.18 420.528 210.314 419.98 207.63C419.769 206.599 418.668 206.023 417.653 205.748C416.081 205.321 414.41 205.265 412.813 205.584C412.02 205.743 411.209 206.015 410.652 206.602C410.349 206.922 410.139 207.317 409.933 207.706L408.39 210.622C408.119 211.135 407.846 211.653 407.686 212.21C407.209 213.879 407.839 215.731 409.004 217.017C410.169 218.303 411.799 219.086 413.467 219.565ZM378.22 249.047C380.635 249.89 382.824 251.372 384.503 253.301C385.947 254.959 387.046 257.112 386.742 259.29C386.631 260.089 386.336 260.851 386 261.585C384.726 264.363 382.535 267.026 379.526 267.564C377.948 267.846 376.32 267.508 374.803 266.992C373.047 266.394 371.373 265.557 369.843 264.509C369.031 263.954 368.225 263.294 367.869 262.377C367.624 261.745 367.616 261.049 367.625 260.371C367.648 258.695 367.759 256.99 368.344 255.418C369.083 253.43 370.53 251.789 372.065 250.324C372.682 249.735 373.336 249.154 374.129 248.839C375.426 248.322 376.902 248.587 378.22 249.047ZM380.689 263.66C382.435 261.933 383.45 259.43 383.174 256.99C382.897 254.551 381.246 252.261 378.936 251.428C377.977 251.082 376.912 250.986 375.929 251.258C375.399 251.405 374.901 251.655 374.437 251.95C372.449 253.214 371.053 255.371 370.714 257.702C370.376 260.034 371.099 262.499 372.645 264.276C373.635 265.415 375.25 265.903 376.747 265.714C378.244 265.525 379.617 264.721 380.689 263.66ZM160.286 234.666C160.205 233.515 158.667 233.214 157.514 233.248C151.463 233.426 145.419 233.879 139.409 234.606C138.422 234.725 138.342 236.317 139.134 236.918C139.926 237.52 141.03 237.408 142.015 237.268L160.286 234.666ZM140.941 242.444C140.993 241.851 141.737 241.637 142.328 241.57L177.972 237.534C178.616 237.461 179.303 237.395 179.883 237.685C180.463 237.975 180.837 238.769 180.458 239.296C180.179 239.684 179.644 239.763 179.167 239.809L142.711 243.347C141.953 243.421 140.874 243.203 140.941 242.444ZM220.848 248.448C218.853 248.886 216.807 248.166 214.894 247.451C208.71 245.14 202.55 242.765 196.415 240.327C193.939 239.343 191.221 240.817 188.994 242.28C182.548 246.514 176.342 251.114 170.416 256.049C168.894 257.316 166.551 256.427 165.016 255.175C164.691 254.91 164.372 254.628 164.051 254.345L164.051 254.345C162.855 253.288 161.644 252.217 160.098 251.998C157.72 251.661 155.628 253.463 153.906 255.136L142.796 265.926C141.302 267.377 139.729 269.701 141.059 271.304C141.936 272.361 143.547 272.307 144.912 272.149C152.039 271.323 159.132 270.164 166.221 269.006L166.222 269.006C177.939 267.092 189.65 265.179 201.502 264.769C204.128 264.679 206.756 264.662 209.384 264.645C211.03 264.635 212.675 264.624 214.321 264.595C221.742 264.466 229.156 263.966 236.527 263.098C236.884 263.056 237.29 262.982 237.475 262.675C237.614 262.442 237.579 262.149 237.54 261.881L234.418 240.637C234.259 239.558 233.982 238.31 232.995 237.844C231.999 237.373 230.825 237.98 230.007 238.719C228.726 239.875 227.74 241.411 226.768 242.926C225.172 245.411 223.612 247.84 220.848 248.448ZM170.144 260.072C176.812 254.589 183.765 249.453 190.965 244.69C192.444 243.712 194.241 242.711 195.893 243.353L213.353 250.138C216.267 251.27 219.454 252.417 222.446 251.509C225.923 250.454 228.002 246.994 229.753 243.809C230.094 243.19 231.085 243.261 231.575 243.77C232.066 244.279 232.19 245.028 232.291 245.727L233.569 254.587C233.765 255.947 233.958 257.359 233.565 258.676C233.172 259.993 232.017 261.189 230.643 261.162C208.168 260.728 185.65 262.581 163.549 266.684C162.864 266.811 162.18 266.94 161.494 267.07C156.215 268.067 150.915 269.067 145.55 269.085C148.141 265.415 151.424 262.298 154.684 259.207C156.474 257.51 158.712 255.68 161.115 256.235C162.413 256.535 163.409 257.467 164.399 258.395L164.399 258.395L164.4 258.396C164.717 258.693 165.034 258.99 165.36 259.265C166.704 260.4 168.785 261.189 170.144 260.072ZM458.474 321.872C457.879 322.094 457.213 321.942 456.606 321.751C452.497 320.46 449.159 317.57 445.879 314.731L445.879 314.731C445.434 314.346 444.991 313.962 444.547 313.584C439.112 308.948 433.214 304.855 426.968 301.386C426.333 301.033 425.667 300.662 425.278 300.048C424.888 299.434 424.9 298.5 425.5 298.09C428.301 296.178 430.117 292.897 430.25 289.508C430.286 288.605 431.306 288.003 432.207 288.076C433.108 288.148 433.893 288.689 434.63 289.212L463.167 309.47C463.723 309.864 464.321 310.321 464.457 310.989C464.568 311.534 464.34 312.085 464.111 312.591C462.88 315.307 461.464 317.939 459.877 320.463C459.518 321.035 459.107 321.636 458.474 321.872ZM429.924 297.841C429.589 298.432 429.298 299.288 429.842 299.697L453.129 317.231C454.405 318.192 456.387 319.092 457.391 317.851C458.544 316.426 459.621 314.939 460.616 313.399C460.888 312.978 461.166 312.497 461.067 312.005C460.978 311.556 460.6 311.23 460.245 310.941C451.698 304.012 442.649 297.702 433.193 292.077L429.924 297.841ZM418.335 308.563C418.711 307.918 419.167 307.212 419.897 307.054C420.455 306.933 421.023 307.172 421.537 307.422C424.341 308.783 426.909 310.629 429.094 312.853C429.62 313.388 429.685 314.249 429.451 314.961C429.217 315.674 428.735 316.274 428.262 316.856C427.502 317.792 426.693 318.766 425.572 319.21C424.362 319.689 422.955 319.458 421.809 318.841C420.663 318.224 419.744 317.259 418.933 316.241C417.876 314.913 416.93 313.32 417.094 311.631C417.201 310.524 417.775 309.524 418.335 308.563ZM423.239 315.998C425.003 316.684 426.131 316.14 426.177 314.984C426.207 314.254 425.57 313.692 424.991 313.247L423.239 311.899C422.66 311.454 422.022 310.988 421.292 310.992C420.561 310.997 419.818 311.75 420.117 312.417C420.072 312.738 421.476 315.312 423.239 315.998ZM416.278 330.235C416.708 330.471 417.164 330.701 417.655 330.711C418.145 330.722 418.676 330.444 418.796 329.969C419.079 328.853 419.817 327.928 420.54 327.023L420.649 326.887C420.691 326.833 420.733 326.78 420.776 326.727C421.567 325.725 422.33 324.59 422.352 323.314C422.373 322.038 421.316 320.677 420.051 320.851C419.055 320.989 418.128 320.336 417.404 319.637C417.289 319.525 417.175 319.411 417.06 319.297C416.454 318.693 415.839 318.079 415.035 317.817C414.078 317.505 412.776 318.001 412.7 319.004C412.547 321.024 410.868 322.545 409.311 323.84C408.845 324.228 409.266 324.972 409.702 325.393C411.665 327.291 413.883 328.924 416.278 330.235ZM416.59 326.386L413.522 324.311C412.742 323.784 412.805 322.492 413.5 321.857C414.196 321.222 415.276 321.173 416.163 321.491C417.049 321.809 417.786 322.432 418.503 323.043C418.977 323.448 419.042 324.185 418.825 324.769C418.608 325.353 418.167 325.821 417.736 326.272C417.589 326.426 417.424 326.59 417.213 326.617C416.988 326.646 416.777 326.513 416.59 326.386ZM440.905 326.523L442.405 323.337C442.864 322.361 443.309 321.153 442.689 320.271C442.474 319.965 442.156 319.749 441.846 319.539L436.39 315.862C435.801 315.466 435.163 315.054 434.454 315.065C433.613 315.078 432.908 315.678 432.311 316.27C431.417 317.157 430.581 318.102 429.81 319.098C429.223 319.856 428.742 321.104 429.543 321.63L437.893 327.108C438.552 327.54 439.388 327.984 440.08 327.608C440.487 327.387 440.708 326.942 440.905 326.523ZM439.055 324.267C438.704 324.348 438.338 324.259 437.994 324.155C435.886 323.52 433.956 322.303 432.474 320.675C431.981 320.134 432.26 319.177 432.887 318.798C433.513 318.418 434.327 318.506 435.002 318.789C435.438 318.972 435.837 319.227 436.237 319.483C436.456 319.623 436.675 319.763 436.9 319.891C437.143 320.029 437.395 320.156 437.648 320.282C438.366 320.642 439.084 321.002 439.574 321.624C440.235 322.466 440.099 324.027 439.055 324.267ZM441.875 327.826C442.837 327.598 443.131 326.617 443.437 325.597C443.689 324.754 443.95 323.885 444.602 323.392C445.725 322.543 447.314 323.253 448.524 323.972L452.37 326.26C452.983 326.625 453.611 327.002 454.05 327.564C454.49 328.125 454.706 328.921 454.398 329.564C454.193 329.994 453.805 330.279 453.414 330.566C453.094 330.801 452.771 331.038 452.546 331.356C452.257 331.766 452.149 332.28 452.043 332.787C451.91 333.424 451.778 334.051 451.292 334.451C450.407 335.181 449.09 334.596 448.112 333.998L442.693 330.687C442.146 330.353 441.57 329.986 441.301 329.405C441.033 328.823 441.252 327.975 441.875 327.826ZM448.979 331.115C449.755 330.85 450.379 330.274 450.977 329.714C451.411 329.308 450.831 328.64 450.313 328.348L446.993 326.479C446.647 326.284 446.165 326.106 445.896 326.399C445.031 327.343 444.906 328.883 445.606 329.954C446.307 331.025 447.768 331.528 448.979 331.115ZM410.888 330.999C410.145 330.789 409.388 330.576 408.781 330.162C407.838 329.519 406.526 329.675 405.537 330.243C404.547 330.811 403.81 331.722 403.096 332.612C402.699 333.106 402.293 333.621 402.141 334.236C401.99 334.85 402.17 335.595 402.723 335.904L408.513 339.131C408.951 339.375 409.441 339.628 409.931 339.519C410.419 339.411 410.755 338.977 411.049 338.573L412.539 336.524C413.368 335.383 414.234 333.928 413.628 332.655C413.142 331.634 412.031 331.321 410.888 330.999ZM409.055 336.308C408.753 336.388 408.441 336.242 408.162 336.1L404.218 334.092C404.976 333.019 406.419 332.608 407.726 332.737C409.034 332.867 410.248 333.449 411.431 334.021L409.618 335.903C409.456 336.072 409.282 336.248 409.055 336.308ZM381.731 256.045C382.342 256.976 382.151 258.22 381.746 259.257C381.212 260.624 380.309 261.891 379.035 262.618C377.76 263.345 376.086 263.452 374.844 262.67C373.602 261.888 372.978 260.15 373.643 258.842C373.797 258.54 374.007 258.272 374.217 258.004C374.418 257.747 374.62 257.491 374.772 257.204C374.872 257.015 374.95 256.815 375.027 256.614C375.14 256.326 375.252 256.038 375.43 255.786C376.062 254.891 377.307 254.715 378.403 254.73C379.646 254.748 381.05 255.005 381.731 256.045ZM378.956 256.636C377.256 256.615 375.661 258.041 375.492 259.733C375.423 260.425 375.717 261.285 376.405 261.38C376.921 261.452 377.374 261.053 377.721 260.664C378.454 259.842 379.084 258.928 379.591 257.95C379.762 257.621 379.912 257.2 379.688 256.906C379.525 256.691 379.226 256.64 378.956 256.636ZM419.632 212.28C419.501 210.723 418.459 209.191 416.946 208.801C415.023 208.305 413.16 209.659 411.634 210.929C411.183 211.304 410.711 211.708 410.52 212.263C410.196 213.205 410.78 214.198 411.354 215.012C412.013 215.944 412.716 216.881 413.676 217.497C414.637 218.113 415.917 218.352 416.925 217.817C417.439 217.544 417.838 217.098 418.186 216.632C419.119 215.378 419.763 213.837 419.632 212.28ZM415.369 216.272C414.717 216.37 414.042 216.107 413.562 215.655C412.844 214.979 412.559 213.891 412.81 212.937C413.074 211.932 413.917 211.102 414.926 210.854C415.936 210.606 417.068 210.951 417.767 211.719C417.741 211.928 417.719 212.139 417.698 212.35L417.697 212.35C417.623 213.066 417.549 213.783 417.301 214.456C416.98 215.326 416.286 216.135 415.369 216.272ZM363.626 459.183C367.171 446.644 373.862 435.264 380.485 424.043C381.604 422.146 382.992 420.058 385.165 419.698C386.021 419.556 386.473 418.625 386.765 417.807C390.357 407.732 390.703 396.528 387.74 386.25C386.894 383.316 387.935 380.206 388.966 377.332L396.942 355.081C396.113 353.646 394.544 353.016 392.955 352.377C391.625 351.843 390.282 351.303 389.344 350.281C386.697 347.395 388.694 342.807 390.768 339.485L427.125 281.26C428.61 278.883 431.868 278.137 434.599 278.771C437.329 279.404 439.662 281.123 441.908 282.801L468.424 302.606C473.167 306.149 478.404 310.675 478.131 316.59C477.98 319.863 476.107 322.772 474.295 325.502L453.281 357.168C450.564 361.262 450.234 366.24 449.903 371.241C449.753 373.503 449.603 375.769 449.232 377.961C447.419 388.652 440.299 397.506 433.478 405.989L433.094 406.466C432.95 406.645 432.807 406.824 432.663 407.003C425.603 415.796 418.539 425.615 418.142 436.884C417.669 450.316 411.288 463.435 401.013 472.099L409.954 450.407C412.081 445.249 414.05 438.831 410.491 434.533C408.881 432.589 406.448 431.56 404.112 430.602L390.225 424.905C389.268 424.512 388.281 424.113 387.246 424.106C384.02 424.087 382.101 427.585 380.793 430.534C376.267 440.736 370.488 450.381 363.626 459.183ZM409.288 429.725C411.669 430.606 415.021 431.142 416.149 428.867C421.61 417.859 427.22 406.64 435.913 397.954C440.923 392.948 443.994 386.268 445.732 379.402C447.469 372.536 447.961 365.425 448.446 358.359C446.336 359.127 446.153 361.973 446.162 364.218C446.182 369.167 445.317 374.117 443.62 378.766C443.265 379.739 442.788 380.79 441.837 381.201C440.886 381.611 439.485 380.787 439.805 379.802C442.258 372.24 443.172 364.183 442.475 356.264C442.26 353.809 441.802 351.183 440.057 349.443C440.246 353.319 440.435 357.213 440.042 361.075C439.363 367.755 436.967 374.125 434.593 380.407C434.285 381.222 433.912 382.111 433.129 382.494C432.346 382.878 431.13 382.27 431.335 381.423L434.891 366.725C436.846 358.644 438.768 349.951 435.742 342.207C434.218 342.105 433.859 344.284 433.995 345.806C434.927 356.228 432.046 366.572 429.193 376.638C428.86 377.814 427.682 379.283 426.766 378.475C426.371 378.126 426.353 377.526 426.385 377C426.565 374.039 427.376 371.174 428.187 368.311L428.188 368.308C428.439 367.42 428.69 366.533 428.923 365.643C431.066 357.433 431.613 348.81 430.523 340.395C428.645 342.802 427.848 345.855 427.097 348.814L422.634 366.38C420.616 374.321 418.039 383.051 411.044 387.316C410.487 387.656 409.84 387.972 409.205 387.822C408.416 387.634 407.969 386.819 407.64 386.078C403.176 376.022 402.618 364.291 406.108 353.857C406.32 353.224 405.676 352.562 405.01 352.51C404.345 352.457 403.722 352.82 403.176 353.205C397.449 357.246 395.255 364.567 393.433 371.335L391.011 380.336C390.657 381.65 390.301 382.977 390.227 384.336C390.115 386.402 390.654 388.424 391.191 390.434L391.191 390.435C391.315 390.901 391.44 391.366 391.556 391.831C393.886 401.182 392.833 411.337 388.635 420.011C388.016 421.29 389.65 422.453 390.982 422.947L409.288 429.725ZM418.336 343.829C417.381 343.171 416.358 342.42 416.062 341.299C415.61 339.579 417.247 337.852 419.011 337.62C420.774 337.389 422.499 338.24 423.96 339.254C426.018 340.681 428.623 338.504 430.164 336.529C428.085 335.286 426.102 333.355 426.02 330.934C425.938 328.513 428.882 326.207 430.841 327.632C431.601 328.185 432.521 328.523 433.43 328.858C434.793 329.359 436.133 329.852 436.88 331.045C437.73 332.402 437.428 334.237 436.563 335.585C435.697 336.932 434.365 337.9 433.065 338.834C434.932 339.019 436.749 339.685 438.293 340.749L439.977 335.844C440.107 335.464 440.249 335.066 440.548 334.797C441.125 334.28 442.023 334.44 442.762 334.674C444.7 335.289 446.601 336.25 447.88 337.83C449.159 339.411 449.693 341.707 448.799 343.534C447.905 345.36 445.382 346.334 443.672 345.233C443.318 345.004 442.962 344.699 442.605 344.394L442.605 344.394C441.652 343.577 440.699 342.761 439.779 343.414C442.588 345.601 444.517 348.887 445.059 352.405C453.9 338.937 462.647 325.406 471.299 311.815C472.124 310.518 472.79 308.473 471.446 307.727C465.7 304.539 460.622 300.271 455.556 296.012C449.161 290.637 442.786 285.278 435.113 282.131C434.626 281.931 434.093 281.738 433.584 281.872C433.051 282.013 432.675 282.477 432.34 282.915C418.051 301.565 405.227 321.337 394.025 341.989C392.462 344.87 394.554 348.304 396.555 350.9C397.555 352.197 399.485 353.568 400.575 352.346C401.949 350.805 404.202 349.925 406.148 350.613C408.094 351.3 409.305 353.831 408.247 355.603C407.481 356.885 408.98 358.31 410.289 359.027C412.905 360.46 415.588 361.77 418.327 362.951C418.708 363.115 419.151 363.276 419.522 363.09C419.875 362.913 420.018 362.493 420.129 362.114L423.163 351.673C423.662 349.956 423.996 347.727 422.523 346.713L418.336 343.829ZM472.616 314.561C472.214 314.423 471.846 314.826 471.609 315.181L448.889 349.19C448.278 350.105 447.652 351.056 447.474 352.142C447.295 353.228 447.694 354.49 448.682 354.974C450.319 355.774 452.03 354.092 453.08 352.604L474.19 322.685C475.757 320.464 474.431 317.427 473.089 315.062C472.973 314.858 472.839 314.638 472.616 314.561ZM408.649 359.976C408.249 359.685 407.651 359.858 407.316 360.223C406.981 360.587 406.844 361.086 406.718 361.564C406.408 362.742 406.096 363.931 406.05 365.148C406.004 366.365 406.225 367.575 406.445 368.772L408.621 380.599C408.712 381.095 408.819 381.622 409.17 381.983C409.522 382.344 410.207 382.422 410.491 382.006C413.712 377.297 416.977 372.495 418.662 367.044C418.871 366.367 418.932 365.414 418.268 365.164C414.848 363.877 411.603 362.127 408.649 359.976ZM433.774 330.796C432.684 329.757 431.242 329.094 429.744 328.941C428.378 328.802 427.59 330.721 428.213 331.944C428.837 333.167 430.214 333.773 431.489 334.284C432.388 334.644 433.479 334.984 434.264 334.415C435.391 333.597 434.783 331.757 433.774 330.796ZM424.805 344.501C425.249 344.184 425.307 343.538 425.182 343.006C424.714 341.004 422.519 339.982 420.548 339.395C419.786 339.169 418.837 339.011 418.3 339.597C417.851 340.087 417.947 340.897 418.334 341.437C418.721 341.977 419.326 342.309 419.911 342.624L422.955 344.264C423.533 344.575 424.269 344.881 424.805 344.501ZM442.124 337.286C441.48 338.148 441.545 339.403 442.083 340.336C442.621 341.269 443.552 341.918 444.534 342.359C444.871 342.51 445.241 342.643 445.603 342.571C445.914 342.509 446.181 342.299 446.371 342.045C447.075 341.105 446.733 339.69 445.928 338.836C445.122 337.983 443.976 337.555 442.872 337.155C442.682 337.086 442.46 337.02 442.287 337.124C442.221 337.164 442.17 337.224 442.124 337.286ZM136.852 415.505C137.274 412.391 137.864 408.963 140.311 406.99C142.263 405.418 144.941 405.167 147.447 405.118C155.656 404.961 163.891 406.294 171.63 409.033C174.079 409.9 176.641 411.041 177.98 413.267C179.429 415.676 179.076 418.715 178.675 421.498L172.459 464.683C176.745 452.177 179.823 439.256 181.634 426.16C182.479 420.051 182.774 413.04 178.51 408.584C171.853 401.627 172.035 391.719 172.22 381.643C172.379 372.948 172.54 364.129 168.311 356.976C166.93 354.643 170.007 352.233 172.567 351.337C183.846 347.388 195.87 345.576 207.812 346.026C210.002 363.321 210.594 380.819 209.579 398.223C209.352 402.126 214.887 403.133 218.773 402.702L353.586 387.753C354.261 387.679 354.991 387.578 355.469 387.097C356.027 386.535 356.055 385.652 356.047 384.859C355.729 353.273 354.82 321.693 353.32 290.14C353.262 288.909 353.105 287.495 352.086 286.801C351.321 286.281 350.316 286.35 349.396 286.44L253.171 295.767C259.493 265.954 265.85 235.58 262.967 205.24C241.932 219.265 214.789 219.16 189.55 217.675C188.502 217.613 187.45 217.55 186.397 217.487C162.109 216.036 136.781 214.522 114.946 225.029C126.379 255.341 137.943 288.429 128.439 319.401C127.598 322.141 126.598 324.832 125.598 327.523C124.056 331.671 122.516 335.816 121.563 340.131C119.992 347.245 120.228 355.21 124.438 361.156C130.535 369.765 135.379 379.555 136.484 390.046C137.533 400.002 135.19 409.876 132.85 419.739C130.404 430.044 127.962 440.337 129.394 450.698C129.636 452.451 130.074 454.337 131.447 455.454L136.852 415.505ZM146.39 290.397C148.94 290.487 149.953 293.688 150.279 296.218L152.86 316.253C147.821 313.64 140.731 318.075 140.875 323.75C136.629 315.553 135.983 306.159 135.345 296.86C135.206 294.837 135.067 292.818 134.892 290.818C133.017 269.423 126.569 248.73 120.161 228.232C119.247 225.309 123.194 223.413 126.224 222.969C146.108 220.054 166.232 220.456 186.365 220.859C195.491 221.042 204.618 221.224 213.727 221.098C229.911 220.873 247.035 219.342 260.163 209.874C263.114 229.545 259.103 249.391 255.144 268.988C254.608 271.638 254.073 274.285 253.557 276.925C249.222 299.087 246.272 322.709 254.565 343.713C254.915 344.598 253.723 345.265 252.792 345.459C245.971 346.882 238.919 347.188 232 346.363C229.032 346.008 226.096 345.449 223.159 344.889C220.947 344.467 218.735 344.045 216.509 343.711C199.751 341.197 182.26 343.807 166.966 351.104C166.353 351.396 165.624 351.259 164.982 351.037C161.884 349.965 159.675 347.103 158.572 344.016C157.47 340.93 157.312 337.598 157.165 334.324L156.548 320.59C156.526 320.097 156.655 319.427 157.149 319.411C183.94 318.574 210.701 316.768 237.362 313.998C236.234 307.69 236.122 301.201 237.032 294.858C237.606 290.854 233.84 287.203 229.83 286.667C225.821 286.132 221.856 287.948 218.526 290.246C217.281 291.105 216.085 292.039 214.89 292.972C212.89 294.533 210.892 296.093 208.668 297.302C207.212 298.093 205.461 298.731 203.932 298.092C202.061 297.31 201.433 295.084 200.873 293.097C200.838 292.972 200.803 292.848 200.768 292.726C200.039 290.167 198.834 287.62 196.714 286.01C194.595 284.401 191.398 284 189.306 285.645C187.517 287.051 186.952 289.487 186.652 291.742C186.626 291.943 186.6 292.145 186.574 292.347C186.308 294.421 186.034 296.564 184.796 298.227C183.438 300.052 180.407 300.834 178.917 299.115C175.97 295.714 170.8 295.001 166.462 296.194C162.124 297.388 158.411 300.144 154.812 302.844C152.641 299.446 152.461 294.87 154.359 291.313L154.391 291.253C154.748 290.585 155.158 289.818 154.842 289.138C154.647 288.717 154.216 288.458 153.789 288.275C151.236 287.181 147.975 288.116 146.39 290.397ZM223.101 347.826C224.529 348.111 226.283 348.747 226.371 350.2C227.213 364.055 238.224 376.506 251.762 379.572C265.299 382.639 280.303 376.438 288.196 365.02C296.09 353.602 296.708 337.741 290.235 325.462C283.294 312.293 266.424 305.3 252.202 309.695C251.542 306.785 251.616 303.711 252.416 300.837C252.565 300.303 252.758 299.745 253.189 299.396C253.61 299.056 254.179 298.978 254.716 298.914L294.781 294.088C298.303 293.664 301.834 293.239 305.382 293.21C320.638 293.084 335.882 291.563 350.862 288.671C353.19 319.927 354.285 351.274 354.145 382.616C354.138 384.103 353.685 386.078 352.199 386.122C326.984 386.856 301.968 390.173 276.942 393.491C260.129 395.72 243.31 397.95 226.424 399.398C222.661 399.721 218.871 400.004 215.111 399.646C214.429 399.581 213.66 399.442 213.29 398.866C213.066 398.519 213.041 398.084 213.023 397.672L210.775 347.541C210.745 346.893 210.785 346.113 211.346 345.787C211.717 345.572 212.183 345.649 212.604 345.733L223.101 347.826ZM154.117 336.22C153.718 338.824 153.27 341.753 154.976 343.723C161.338 351.071 167.948 358.922 169.639 368.493C170.429 372.963 170.09 377.563 169.752 382.144C169.326 387.915 168.903 393.656 170.741 399.07C170.788 399.211 170.838 399.353 170.888 399.494C171.225 400.46 171.57 401.443 171.46 402.451C171.335 403.607 170.331 404.769 169.186 404.572L155.885 402.278C151.48 401.518 146.826 400.779 142.642 402.351C141.833 402.655 140.902 402.122 140.469 401.374C140.035 400.627 139.978 399.727 139.941 398.863C139.895 397.821 139.861 396.771 139.827 395.719C139.612 389.097 139.393 382.351 136.328 376.55L126.55 358.039C125.106 355.306 123.629 352.451 123.529 349.363C123.463 347.3 124.019 345.274 124.572 343.285L129.45 325.713C130.477 322.013 131.563 318.196 133.996 315.225C139.904 325.25 140.487 338.219 135.502 348.733C135.041 349.705 136.45 350.707 137.454 350.319C138.458 349.932 138.968 348.831 139.322 347.815C140.74 343.743 141.238 339.45 141.736 335.151C142.138 331.673 142.542 328.191 143.434 324.818C143.98 322.752 144.768 320.643 146.364 319.221C147.959 317.799 150.561 317.312 152.233 318.644C153.512 319.662 153.928 321.404 154.172 323.021C154.814 327.288 154.811 331.651 154.163 335.918C154.148 336.018 154.132 336.119 154.117 336.22ZM177.067 301.529C179.028 303.029 180.948 304.499 183.3 304.227C186.29 303.881 188.154 300.803 189.022 297.921C189.212 297.29 189.381 296.645 189.551 295.998C190.156 293.689 190.765 291.361 192.35 289.624C192.81 289.119 193.473 288.649 194.127 288.847C194.657 289.007 194.965 289.544 195.211 290.04C195.56 290.742 195.89 291.457 196.22 292.172C197.151 294.187 198.082 296.204 199.433 297.955C201.264 300.328 204.112 302.194 207.091 301.867C209.754 301.575 211.835 299.689 213.864 297.851C214.28 297.474 214.693 297.099 215.11 296.74C219.995 292.527 226.359 290.062 232.808 289.884C231.938 292.058 232.518 294.43 233.087 296.757C233.224 297.317 233.361 297.875 233.476 298.426C234.386 302.779 233.926 307.408 232.177 311.496L189.102 314.812C179.046 315.586 168.965 316.361 158.886 316.007C158.249 315.984 157.596 315.954 157.01 315.703C155.904 315.23 155.247 314.049 155.009 312.869C154.475 310.225 155.694 307.47 157.541 305.503C159.388 303.536 161.8 302.211 164.169 300.92C166.634 299.575 169.371 298.186 172.119 298.76C173.948 299.142 175.52 300.345 177.067 301.529ZM258.634 364.275C252.109 364.141 246.455 358.817 244.517 352.584C244.122 351.312 244.944 349.916 246.079 349.217C247.214 348.518 248.587 348.353 249.911 348.204L259.473 347.13C256.565 341.479 254.494 335.397 253.348 329.146C253.244 328.579 253.149 327.983 253.329 327.435C253.643 326.473 254.68 325.966 255.64 325.644C263.408 323.033 272.736 326.203 277.304 333.007C281.873 339.811 281.274 349.646 275.912 355.845C273.591 358.528 270.549 360.509 267.345 362.033C264.612 363.333 261.659 364.338 258.634 364.275ZM289.6 330.683C290.761 334.517 291.097 338.55 291.256 342.553C288.649 342.158 286.016 341.934 283.379 341.883C282.863 335.15 278.382 329.067 272.49 325.767C266.599 322.467 259.488 321.753 252.83 322.883C252.774 321.934 252.601 320.944 252.428 319.954C251.971 317.34 251.514 314.726 253.204 312.871C254.225 311.751 255.78 311.302 257.27 311.025C264.058 309.76 271.295 311.085 277.194 314.672C283.093 318.259 287.6 324.075 289.6 330.683ZM241.741 351.905C241.73 352.029 241.72 352.151 241.714 352.268C241.67 353.199 242.104 354.052 242.533 354.897C242.648 355.123 242.763 355.349 242.868 355.575C243.365 356.647 243.606 358.058 242.775 358.897C240.763 360.928 238.986 363.19 237.489 365.624C237.118 366.226 236.207 366.275 235.598 365.916C234.989 365.557 234.611 364.917 234.26 364.304C232.034 360.424 229.753 356.365 229.475 351.9C229.441 351.345 229.502 350.673 229.994 350.414C230.211 350.3 230.467 350.297 230.712 350.296L240.666 350.266C240.904 350.265 241.154 350.267 241.361 350.385C241.849 350.662 241.793 351.307 241.741 351.905Z" fill="#00160A"/>
</svg>
